<?xml version="1.0" encoding="utf-8"?>
<!-- Generator: Adobe Illustrator 18.1.0, SVG Export Plug-In . SVG Version: 6.00 Build 0)  -->
<!DOCTYPE svg PUBLIC "-//W3C//DTD SVG 1.1//EN" "http://www.w3.org/Graphics/SVG/1.1/DTD/svg11.dtd">
<svg version="1.1" id="Arrow_1_" xmlns="http://www.w3.org/2000/svg" xmlns:xlink="http://www.w3.org/1999/xlink" x="0px" y="0px"
	 viewBox="-1091.2 201.2 214.7 214.5" enable-background="new -1091.2 201.2 214.7 214.5" xml:space="preserve">
<g>
	<g>
		<path fill="#75B1B1" d="M-879.8,236.5c-1-4-4-6.9-5.8-8c-4-2.3-37.4-2.9-37.7-2.9c-0.1,0-0.3,0.1-0.4,0.1
			c-0.9-0.1-1.8-0.2-2.7-0.3c-1.8-0.1-3.8-0.2-6.1-0.2c-7.6,0-21,0.8-31.5,5.5l-11.7,1.8c-4.4,0.7-11.8,0.7-16.2,0l-11.7-1.8
			c-10.4-4.8-23.8-5.5-31.5-5.5c-2.3,0-4.4,0.1-6.1,0.2c-1,0-1.9,0.2-2.8,0.3c-0.1,0-0.2,0-0.3,0c-0.3,0-33.7,0.6-37.7,2.9
			c-1.8,1-4.9,4-5.8,8c-0.6,2.5-0.3,5.1,1.1,7.1c1.5,2.4,7.3,14.7,10.6,21.8c0,0.1,0.2,0.2,0.2,0.3c0.8,4.8,1.9,10.2,4,16.7
			c3.8,12.2,18.2,19,40.4,19c3.8,0,7.8-0.2,11.7-0.6c8.6-1,15-4.1,20.5-10.2c6.9-7.6,10.7-20.2,10.7-34.9l2.7-1.9
			c1.1-0.8,3.3-0.8,4.4,0l2.7,1.9c0,14.7,3.8,27.3,10.7,34.9c5.5,6.1,11.8,9.3,20.5,10.2c3.9,0.4,7.8,0.6,11.7,0.6l0,0
			c22.2,0,36.5-6.8,40.4-19c2-6.5,3.2-11.9,4-16.7c0.1-0.1,0.2-0.2,0.2-0.3c3.3-7.1,9.1-19.4,10.6-21.8
			C-879.5,241.6-879.2,239.1-879.8,236.5z M-1006.2,284.8c-4,4.4-8.4,6.6-14.8,7.3c-3.6,0.4-7.2,0.6-10.7,0.6
			c-8.4,0-28.3-1.3-31.9-12.8c-3.9-12.5-4.4-20.6-4.9-28.5c-0.1-1.2,0-5.4,4.5-9.5c4.8-4.3,12.8-7,23.2-7.6c1.6-0.1,3.5-0.2,5.6-0.2
			c5.4,0,18.6,0.5,27.8,4.7c0,0,0,0,0.1,0c5.3,2.4,9.2,6.1,9.6,11.6C-996.9,265.4-1000,277.9-1006.2,284.8z M-904.1,279.9
			c-3.6,11.5-23.5,12.8-31.9,12.8l0,0c-3.5,0-7.1-0.2-10.8-0.6c-6.4-0.7-10.9-2.9-14.8-7.3c-6.2-6.9-9.2-19.4-8.3-34.3
			c0.3-5.6,4.3-9.2,9.6-11.6c0,0,0,0,0.1,0c9.2-4.2,22.3-4.7,27.8-4.7c2.1,0,4,0,5.6,0.2c14.5,0.9,21.3,5.3,24.4,8.9
			c3.2,3.6,3.3,7,3.3,8.3C-899.7,259.3-900.2,267.4-904.1,279.9z"/>
		<path d="M-936,303c-3.9,0-7.9-0.2-11.8-0.6c-9-1-15.6-4.3-21.4-10.7c-7-7.8-10.9-20.2-11.1-35.2l-2.1-1.4
			c-0.2-0.1-0.7-0.3-1.4-0.3s-1.2,0.2-1.4,0.3l-2.1,1.4c-0.2,14.9-4.1,27.4-11.1,35.2c-5.7,6.4-12.3,9.7-21.4,10.7
			c-3.9,0.4-7.9,0.6-11.9,0.6c-22.9,0-37.7-7.1-41.8-20c-1.8-5.7-3.1-11.1-4-16.6c-0.1-0.1-0.1-0.2-0.2-0.3
			c-4.2-9.1-9.1-19.5-10.5-21.6c-1.6-2.4-2-5.3-1.3-8.3c1.1-4.4,4.5-7.7,6.6-8.9c4.6-2.6,38.1-3.1,38.4-3.1c0.1,0,0.2,0,0.3,0
			c0.2,0,0.5,0,0.7-0.1c0.7-0.1,1.3-0.1,2-0.2c1.6-0.1,3.8-0.2,6.2-0.2c8.9,0,21.7,1,31.9,5.6l11.5,1.8c2,0.3,4.9,0.5,7.9,0.5
			c3,0,5.9-0.2,7.9-0.5l11.5-1.8c10.8-4.8,24.6-5.6,31.9-5.6c2.3,0,4.3,0.1,6.2,0.2c0.7,0,1.3,0.1,1.9,0.2c0.2,0,0.5,0.1,0.7,0.1
			c0.1,0,0.3-0.1,0.5-0.1c0.3,0,33.9,0.5,38.4,3.1c1.7,1,5.4,4.1,6.5,8.9c0.7,3,0.3,5.8-1.3,8.3c-1.4,2.3-7,14-10.5,21.6
			c-0.1,0.1-0.1,0.2-0.2,0.3c-0.9,5.5-2.2,11-4,16.6C-898.3,295.9-913.1,303-936,303z M-983.8,251.9c0.7,0,2,0.1,3.1,0.8l3.3,2.3
			l0,0.8c0,14.5,3.7,26.6,10.3,34c5.2,5.8,11.3,8.8,19.5,9.7c3.9,0.4,7.7,0.6,11.5,0.6c21.5,0,35.3-6.4,39-18c1.8-5.6,3-11,3.9-16.5
			l0.1-0.3l0.2-0.3c0-0.1,0.1-0.1,0.1-0.1c2.6-5.8,9-19.3,10.7-22c1.1-1.8,1.4-3.9,0.9-6c-0.8-3.5-3.6-6.2-5.1-7
			c-3.1-1.8-30.7-2.7-36.8-2.7c-0.1,0-0.3,0.1-0.6,0.1l-0.1,0c-0.3,0-0.6-0.1-1-0.1c-0.5-0.1-1.1-0.1-1.7-0.1
			c-1.8-0.1-3.8-0.2-6-0.2c-7.1,0-20.5,0.7-30.9,5.4l-0.2,0.1l-11.9,1.9c-2.2,0.3-5.2,0.5-8.3,0.5c-3.2,0-6.1-0.2-8.3-0.5l-11.9-1.9
			l-0.2-0.1c-10.3-4.7-23.7-5.4-30.9-5.4c-2.3,0-4.4,0.1-6,0.2c-0.6,0-1.2,0.1-1.8,0.2c-0.3,0-0.6,0.1-0.9,0.1l-0.1,0
			c-0.1,0-0.2,0-0.4,0c-6,0.1-33.7,0.9-36.9,2.7c-1.5,0.9-4.3,3.6-5.1,7c-0.5,2.2-0.2,4.2,0.9,6c1.8,2.8,8.6,17.4,10.7,22
			c0.1,0.1,0.2,0.3,0.3,0.6l0.1,0.2c0.9,5.5,2.1,10.9,3.9,16.5c3.6,11.6,17.5,18,39,18c3.8,0,7.7-0.2,11.5-0.6
			c8.3-0.9,14.3-3.9,19.5-9.7c6.6-7.4,10.3-19.4,10.4-34l0-0.8l3.3-2.3C-985.9,252-984.5,251.9-983.8,251.9z M-936,294.1
			c-3.5,0-7.1-0.2-10.9-0.6c-6.8-0.8-11.6-3.1-15.8-7.8c-6.5-7.2-9.6-20.1-8.7-35.4c0.3-5.4,3.8-9.8,10.2-12.8l0.3-0.2l0.3,0
			c9.4-4.2,22.8-4.7,28.1-4.7c2.4,0,4.2,0.1,5.7,0.2c15.1,0.9,22.1,5.6,25.4,9.4c3.5,4,3.7,7.9,3.6,9.3c-0.4,7.4-0.8,15.8-4.9,28.8
			C-906.7,292.8-927.3,294.1-936,294.1z M-960,240.3c-5.4,2.6-8.2,5.9-8.4,10.3c-0.9,14.5,2,26.6,7.9,33.2c3.7,4.1,7.8,6.2,13.9,6.8
			c3.7,0.4,7.3,0.6,10.6,0.6c6.3,0,27.1-0.8,30.5-11.7c4-12.6,4.4-20.8,4.8-28.1c0.1-1.1-0.1-4-2.9-7.2c-2.9-3.3-9.3-7.5-23.4-8.4
			c-1.4-0.1-3.2-0.2-5.5-0.2c-5.2,0-18,0.4-27,4.5l-0.2,0.2L-960,240.3z M-1031.7,294.1c-8.7,0-29.4-1.3-33.3-13.8
			c-4-12.8-4.5-21-5-28.8c-0.1-1.3,0-6.1,5-10.7c5-4.6,13.4-7.3,24.1-8c1.6-0.1,3.5-0.2,5.6-0.2c5.3,0,18.6,0.5,28.1,4.7h0.3
			l0.3,0.3c6.5,3,9.9,7.3,10.2,12.8c0.9,15.3-2.3,28.2-8.7,35.4c-4.2,4.7-8.9,7-15.8,7.8C-1024.6,293.9-1028.3,294.1-1031.7,294.1z
			 M-1035.2,235.6c-2.1,0-3.9,0.1-5.5,0.2c-10.1,0.6-17.8,3.1-22.3,7.2c-4.1,3.8-4.1,7.6-4,8.3c0.5,7.7,0.9,15.7,4.8,28.1
			c3.4,10.9,24.2,11.7,30.5,11.7c3.4,0,6.9-0.2,10.6-0.6c6.1-0.7,10.1-2.7,13.9-6.8c5.9-6.6,8.8-18.7,8-33.2
			c-0.3-4.3-3.1-7.7-8.4-10.3h-0.3l-0.3-0.3C-1017.3,236-1030.1,235.6-1035.2,235.6z"/>
	</g>
	<g>
		<path fill="#B29887" d="M-881.6,340c-3.5-2.8-13.7,15.1-30,14.3c-17.7-0.9-20.6-22.8-41.2-26.1c-10.5-1.6-24.3,1.7-31.3,11.8
			c-6.9-10-20.8-13.4-31.3-11.8c-20.7,3.2-23.5,25.1-41.2,26.1c-16.3,0.8-26.4-17-30-14.3c-4,3.2,4.1,30.2,25.5,42.8
			c19.5,11.4,42.6,9.3,51.6,6.8c9.5-2.7,18.1-8.7,25.4-19.8c7.2,11.2,15.8,17.1,25.4,19.8c8.9,2.5,32.1,4.7,51.6-6.8
			C-885.7,370.2-877.6,343.2-881.6,340z"/>
		<path d="M-941.8,393C-941.8,393-941.8,393-941.8,393c-6.3,0-12.7-0.8-17.3-2.1c-10-2.8-18.2-8.9-25-18.6
			c-6.7,9.7-14.9,15.8-25,18.6c-2.2,0.6-8.3,2.1-17.3,2.1c-9.2,0-22.8-1.6-35.4-9c-17.4-10.2-26.5-29.7-27.2-39.6
			c-0.2-2.7,0.3-4.6,1.5-5.6c0.5-0.4,1.1-0.6,1.8-0.6c2,0,4,1.7,7.1,4.4c5.2,4.5,12.5,10.7,21.9,10.2c8.2-0.4,12.9-5.5,18.3-11.5
			c5.5-6,11.8-12.9,22.8-14.6c1.8-0.3,3.6-0.4,5.5-0.4c8.4,0,19.3,3,26,11.2c6.7-8.2,17.7-11.2,26-11.2c1.9,0,3.7,0.1,5.5,0.4
			c11,1.7,17.2,8.5,22.8,14.6c5.5,5.9,10.2,11.1,18.3,11.5c9.4,0.5,16.7-5.7,21.9-10.2c3.1-2.6,5.1-4.4,7.1-4.4
			c0.7,0,1.3,0.2,1.8,0.6c1.2,0.9,1.7,2.8,1.5,5.6c-0.7,9.9-9.8,29.4-27.2,39.6C-919,391.5-932.6,393-941.8,393z M-984.1,367
			l1.2,1.9c6.6,10.1,14.6,16.4,24.5,19.2c4.3,1.2,10.5,1.9,16.5,1.9c8.8,0,21.8-1.5,33.9-8.6c17.1-10,25.2-29.2,25.8-37.3
			c0.1-2.1-0.2-2.9-0.4-3c-0.8,0-3.1,2-5.1,3.7c-5.3,4.5-13.4,11.4-24,10.9c-9.4-0.5-14.7-6.3-20.3-12.4
			c-5.5-5.9-11.1-12.1-21.1-13.6c-1.6-0.2-3.3-0.4-5-0.4c-8.2,0-18.9,3-24.8,11.5l-1.2,1.8l-1.2-1.8c-5.9-8.5-16.7-11.5-24.8-11.5
			c-1.7,0-3.4,0.1-5,0.4c-9.9,1.6-15.6,7.7-21.1,13.6c-5.6,6.1-11,11.9-20.3,12.4c-10.6,0.5-18.7-6.4-24-10.9
			c-2-1.7-4.3-3.7-5.2-3.7c-0.1,0.1-0.5,0.9-0.4,3c0.6,8.1,8.7,27.3,25.8,37.3c12.1,7.1,25.1,8.6,33.9,8.6c6,0,12.2-0.7,16.5-1.9
			c9.9-2.8,18-9.1,24.5-19.2L-984.1,367z"/>
	</g>
</g>
</svg>
