<?xml version="1.0" encoding="utf-8"?>
<!-- Generator: Adobe Illustrator 18.1.0, SVG Export Plug-In . SVG Version: 6.00 Build 0)  -->
<!DOCTYPE svg PUBLIC "-//W3C//DTD SVG 1.1//EN" "http://www.w3.org/Graphics/SVG/1.1/DTD/svg11.dtd">
<svg version="1.1" id="Arrow_1_" xmlns="http://www.w3.org/2000/svg" xmlns:xlink="http://www.w3.org/1999/xlink" x="0px" y="0px"
	 viewBox="-1091.2 448 214.7 214.5" enable-background="new -1091.2 448 214.7 214.5" xml:space="preserve">
<g>
	<g id="Shape_5_1_">
		<path fill="#75B1B1" d="M-886.6,496.4h-194.6c-3.4,0-6.2,2.8-6.2,6.2v127.8c0,3.4,2.8,6.2,6.2,6.2h194.6c3.4,0,6.2-2.8,6.2-6.2
			V502.5C-880.4,499.1-883.2,496.4-886.6,496.4z"/>
	</g>
	<g id="Rectangle_4_1_">
		<rect x="-1087.5" y="531.4" fill="#DBFEFF" width="207.1" height="70.1"/>
	</g>
	<g id="Shape_17_1_">
		<path fill="#B29887" d="M-911.1,474h-40.5c-2.9,0-5.2,2.4-5.2,5.3v13.8h50.9v-13.8C-905.9,476.4-908.2,474-911.1,474z"/>
	</g>
	<g id="Shape_18_1_">
		<ellipse fill="#B29887" cx="-987.6" cy="566.4" rx="53" ry="52.8"/>
	</g>
	<g id="Shape_18_copy_1_">
		<ellipse fill="#445E79" cx="-985.4" cy="566.6" rx="44.2" ry="44"/>
	</g>
	<g id="Shape_18_copy_2_1_">
		<ellipse fill="#304155" cx="-985.4" cy="566.6" rx="30.9" ry="30.8"/>
	</g>
	<g id="Shape_18_copy_3_1_">
		<ellipse fill="#202D3D" cx="-985.4" cy="566.6" rx="17.7" ry="17.6"/>
	</g>
	<g id="Shape_18_copy_4_1_">
		<ellipse fill="#BEC9D7" cx="-974.4" cy="544.6" rx="8.8" ry="8.8"/>
	</g>
	<g id="Shape_18_copy_5_1_">
		<circle fill="#BEC9D7" cx="-1003.8" cy="584.9" r="4.4"/>
	</g>
	<g id="Rectangle_5_1_">
		<rect x="-1077.4" y="507.9" fill="#62605E" width="36.8" height="11"/>
	</g>
</g>
</svg>
