<?xml version="1.0" encoding="utf-8"?>
<!-- Generator: Adobe Illustrator 18.1.0, SVG Export Plug-In . SVG Version: 6.00 Build 0)  -->
<!DOCTYPE svg PUBLIC "-//W3C//DTD SVG 1.1//EN" "http://www.w3.org/Graphics/SVG/1.1/DTD/svg11.dtd">
<svg version="1.1" id="Arrow_1_" xmlns="http://www.w3.org/2000/svg" xmlns:xlink="http://www.w3.org/1999/xlink" x="0px" y="0px"
	 viewBox="-801.7 970.3 214.7 214.5" enable-background="new -801.7 970.3 214.7 214.5" xml:space="preserve">
<g>
	<g id="_x35_88-photobook.png_1_">
		<g>
			<path fill="#B29887" d="M-734.7,1127.9h95.7v-110.8c0-5.6-4.5-10.1-10.1-10.1h-90.6c-5.6,0-10.1,4.5-10.1,10.1v120.8
				c0,5.6,4.5,10.1,10.1,10.1h90.6c5.6,0,10.1-4.5,10.1-10.1h-95.7c-2.8,0-5-2.3-5-5C-739.7,1130.1-737.4,1127.9-734.7,1127.9z
				 M-724.6,1032.2h60.4v45.3h-60.4V1032.2z M-679.3,1052.3c2.8,0,5-2.3,5-5c0-2.8-2.3-5-5-5c-2.8,0-5,2.3-5,5
				C-684.3,1050.1-682,1052.3-679.3,1052.3z M-689.3,1067.5l-15.1-15.1l-15.1,20.1h50.3l-10.1-10.1L-689.3,1067.5z"/>
		</g>
	</g>
</g>
</svg>
