<?xml version="1.0" encoding="utf-8"?>
<!-- Generator: Adobe Illustrator 18.1.0, SVG Export Plug-In . SVG Version: 6.00 Build 0)  -->
<!DOCTYPE svg PUBLIC "-//W3C//DTD SVG 1.1//EN" "http://www.w3.org/Graphics/SVG/1.1/DTD/svg11.dtd">
<svg version="1.1" id="Arrow_1_" xmlns="http://www.w3.org/2000/svg" xmlns:xlink="http://www.w3.org/1999/xlink" x="0px" y="0px"
	 viewBox="-801.7 448 214.7 214.5" enable-background="new -801.7 448 214.7 214.5" xml:space="preserve">
<g>
	<ellipse fill="#FFF8F4" cx="-694.4" cy="555.3" rx="105.3" ry="105.2"/>
	<g>
		<path fill="#75B1B1" d="M-635.1,518.9c0-0.1,0-0.3-0.1-0.4c0-0.1-0.1-0.2-0.2-0.3s-0.1-0.2-0.2-0.3c-0.1-0.1-0.2-0.2-0.3-0.3
			c0,0-0.1-0.1-0.2-0.1c0,0-0.1,0-0.1,0c-0.1,0-0.3-0.1-0.4-0.1c-0.1,0-0.3,0-0.4-0.1c0,0-0.1,0-0.1,0h-113.5c0,0-0.1,0-0.1,0
			c-0.1,0-0.3,0-0.4,0.1s-0.3,0.1-0.4,0.1c0,0-0.1,0-0.1,0c-0.1,0-0.1,0.1-0.2,0.1c-0.1,0.1-0.2,0.2-0.3,0.3
			c-0.1,0.1-0.2,0.2-0.2,0.3c-0.1,0.1-0.1,0.2-0.2,0.3c0,0.1-0.1,0.3-0.1,0.4c0,0.1,0,0.1,0,0.2v73.2c0,1,0.9,1.8,2.1,1.8h113.5
			c1.1,0,2.1-0.8,2.1-1.8v-73.2C-635.1,519-635.1,519-635.1,518.9z"/>
	</g>
	<g>
		<path fill="#DBFEFF" d="M-751.3,593.9L-637,594c0.4,0,0.8-0.2,1.1-0.4c-4.6-8.3-16.6-28.2-33.1-44.1h-49.5
			c-16.7,15.8-28.7,35.8-33.3,44.1C-751.7,593.8-751.5,593.9-751.3,593.9z"/>
	</g>
	<g>
		<path fill="#DBFEFF" d="M-637,517.4c0,0-0.1,0-0.1,0h-113.5c0,0-0.1,0-0.1,0c0,0-0.1,0-0.1,0c0,0,0,0,0.1,0.1
			c8.3,10.3,31,36.4,56.9,44.8c26.1-8.4,48.6-34.2,57-44.9C-636.9,517.4-637,517.4-637,517.4z"/>
	</g>
	<g>
		<path fill="#17635C" d="M-693.9,561c-26-8.4-48.7-33.2-56.9-43.6c0,0,0,0-0.1-0.1c-0.1,0-0.2,0-0.3,0c-0.1,0-0.3,0.1-0.4,0.1
			c0,0-0.1,0-0.1,0c0,0,0,0,0,0c8.5,11.2,29.1,37.3,57.3,46.1l0.5,0.2l0.5-0.2c28.2-8.8,48.8-34.8,57.3-46.1l0,0c0,0-0.1,0-0.1,0
			c-0.1,0-0.3-0.1-0.4-0.1c-0.1,0-0.2,0-0.3,0C-645.3,527.8-667.8,552.6-693.9,561z"/>
	</g>
</g>
</svg>
