<?xml version="1.0" encoding="utf-8"?>
<!-- Generator: Adobe Illustrator 18.1.0, SVG Export Plug-In . SVG Version: 6.00 Build 0)  -->
<!DOCTYPE svg PUBLIC "-//W3C//DTD SVG 1.1//EN" "http://www.w3.org/Graphics/SVG/1.1/DTD/svg11.dtd">
<svg version="1.1" id="Arrow_1_" xmlns="http://www.w3.org/2000/svg" xmlns:xlink="http://www.w3.org/1999/xlink" x="0px" y="0px"
	 viewBox="-1091.2 970.3 214.7 214.5" enable-background="new -1091.2 970.3 214.7 214.5" xml:space="preserve">
<g>
	<g>
		<path fill="#724E3B" d="M-877.8,1148.4h-212.2v-141.7h212.2V1148.4z M-1078.8,1137.3h190v-119.5h-190V1137.3z"/>
	</g>
	<g>
		<path fill="#724E3B" d="M-975.3,1032.6c-62.9,0-108.6-10.2-109.2-10.4l0.3-1.4c0.9,0.2,95.8,21.5,200.8,2.4l0.2,1.4
			C-915.7,1030.6-947.2,1032.6-975.3,1032.6z"/>
	</g>
	<g>
		<path fill="#724E3B" d="M-970.7,1071.7c-62.9,0-108.6-10.2-109.2-10.4l0.3-1.4c0.9,0.2,95.8,21.5,200.8,2.4l0.2,1.4
			C-911.1,1069.6-942.6,1071.7-970.7,1071.7z"/>
	</g>
	<g>
		<path fill="#724E3B" d="M-970.7,1104.6c-62.9,0-108.6-10.2-109.2-10.4l0.3-1.4c0.9,0.2,95.8,21.5,200.8,2.4l0.2,1.4
			C-911.1,1102.5-942.6,1104.6-970.7,1104.6z"/>
	</g>
	<g>
		<path fill="#75B1B1" d="M-1066.5,1025.6l-3.6,30.5l12.3,1.4l3.6-30.5L-1066.5,1025.6z M-1057.9,1050.6l-10.3-1.2l0.8-6.8l10.3,1.2
			L-1057.9,1050.6z M-1057,1042.9l-10.3-1.2l0.8-6.8l10.3,1.2L-1057,1042.9z M-1056.1,1035.2l-10.3-1.2l0.8-6.8l10.3,1.2
			L-1056.1,1035.2z"/>
	</g>
	<g>
		<path fill="#75B1B1" d="M-968.3,1031.2l-3.6,30.5l12.3,1.4l3.6-30.5L-968.3,1031.2z M-959.8,1056.2l-10.3-1.2l0.8-6.8l10.3,1.2
			L-959.8,1056.2z M-958.9,1048.4l-10.3-1.2l0.8-6.8l10.3,1.2L-958.9,1048.4z M-957.9,1040.7l-10.3-1.2l0.8-6.8l10.3,1.2
			L-957.9,1040.7z"/>
	</g>
	<g>
		<path fill="#75B1B1" d="M-1008.1,1030.2l-1.2,30.7l12.4,0.5l1.2-30.7L-1008.1,1030.2z M-997.6,1054.5l-10.4-0.4l0.3-6.9l10.4,0.4
			L-997.6,1054.5z M-997.3,1046.7l-10.4-0.4l0.3-6.9l10.4,0.4L-997.3,1046.7z M-997,1039l-10.4-0.4l0.3-6.9l10.4,0.4L-997,1039z"/>
	</g>
	<g>
		<path fill="#75B1B1" d="M-933.5,1031.1l2.7,30.6l12.4-1.1l-2.7-30.6L-933.5,1031.1z M-920.1,1053.8l-10.4,0.9l-0.6-6.8l10.4-0.9
			L-920.1,1053.8z M-920.7,1046.1l-10.4,0.9l-0.6-6.8l10.4-0.9L-920.7,1046.1z M-921.4,1038.3l-10.4,0.9l-0.6-6.8l10.4-0.9
			L-921.4,1038.3z"/>
	</g>
	<g>
		<path fill="#B29887" d="M-1049.1,1027.6l0.2,30.7l12.4-0.1l-0.2-30.7L-1049.1,1027.6z M-1037.5,1051.4l-10.4,0.1l0-6.9l10.4-0.1
			L-1037.5,1051.4z M-1037.6,1043.6l-10.4,0.1l0-6.9l10.4-0.1L-1037.6,1043.6z M-1037.6,1035.8l-10.4,0.1l0-6.9l10.4-0.1
			L-1037.6,1035.8z"/>
	</g>
	<g>
		<path fill="#B29887" d="M-918.4,1029.4l7.1,29.9l12.1-2.9l-7.1-29.9L-918.4,1029.4z M-901.8,1050l-10.1,2.4l-1.6-6.7l10.1-2.4
			L-901.8,1050z M-903.6,1042.4l-10.1,2.4l-1.6-6.7l10.1-2.4L-903.6,1042.4z M-905.4,1034.8l-10.1,2.4l-1.6-6.7l10.1-2.4
			L-905.4,1034.8z"/>
	</g>
	<g>
		<path fill="#B29887" d="M-1029,1029.5l-1.4,30.7l12.4,0.6l1.4-30.7L-1029,1029.5z M-1018.6,1053.8l-10.4-0.5l0.3-6.9l10.4,0.5
			L-1018.6,1053.8z M-1018.3,1046.1l-10.4-0.5l0.3-6.9l10.4,0.5L-1018.3,1046.1z M-1017.9,1038.3l-10.4-0.5l0.3-6.9l10.4,0.5
			L-1017.9,1038.3z"/>
	</g>
	<g>
		<path fill="#B29887" d="M-951.7,1031.5l-1.4,30.7l12.4,0.6l1.4-30.7L-951.7,1031.5z M-941.4,1055.8l-10.4-0.5l0.3-6.9l10.4,0.5
			L-941.4,1055.8z M-941,1048.1l-10.4-0.5l0.3-6.9l10.4,0.5L-941,1048.1z M-940.7,1040.3l-10.4-0.5l0.3-6.9l10.4,0.5L-940.7,1040.3z
			"/>
	</g>
	<g>
		<path fill="#B29887" d="M-989.6,1032.2l1.8,30.7l12.4-0.7l-1.8-30.7L-989.6,1032.2z M-976.9,1055.3l-10.4,0.6l-0.4-6.9l10.4-0.6
			L-976.9,1055.3z M-977.3,1047.5l-10.4,0.6l-0.4-6.9l10.4-0.6L-977.3,1047.5z M-977.8,1039.8l-10.4,0.6l-0.4-6.9l10.4-0.6
			L-977.8,1039.8z"/>
	</g>
	<g>
		<path fill="#75B1B1" d="M-945.8,1069.2l-3.6,30.5l12.3,1.4l3.6-30.5L-945.8,1069.2z M-937.3,1094.2l-10.3-1.2l0.8-6.8l10.3,1.2
			L-937.3,1094.2z M-936.4,1086.5l-10.3-1.2l0.8-6.8l10.3,1.2L-936.4,1086.5z M-935.5,1078.8l-10.3-1.2l0.8-6.8l10.3,1.2
			L-935.5,1078.8z"/>
	</g>
	<g>
		<path fill="#75B1B1" d="M-911.1,1066.4l-3.6,30.5l12.3,1.4l3.6-30.5L-911.1,1066.4z M-902.5,1091.3l-10.3-1.2l0.8-6.8l10.3,1.2
			L-902.5,1091.3z M-901.6,1083.6l-10.3-1.2l0.8-6.8l10.3,1.2L-901.6,1083.6z M-900.7,1075.9l-10.3-1.2l0.8-6.8l10.3,1.2
			L-900.7,1075.9z"/>
	</g>
	<g>
		<path fill="#75B1B1" d="M-1048.2,1067.4l-1.2,30.7l12.4,0.5l1.2-30.7L-1048.2,1067.4z M-1037.8,1091.7l-10.4-0.4l0.3-6.9l10.4,0.4
			L-1037.8,1091.7z M-1037.5,1083.9l-10.4-0.4l0.3-6.9l10.4,0.4L-1037.5,1083.9z M-1037.2,1076.1l-10.4-0.4l0.3-6.9l10.4,0.4
			L-1037.2,1076.1z"/>
	</g>
	<g>
		<path fill="#75B1B1" d="M-992.3,1070.8l2.7,30.6l12.4-1.1l-2.7-30.6L-992.3,1070.8z M-978.9,1093.6l-10.4,0.9l-0.6-6.8l10.4-0.9
			L-978.9,1093.6z M-979.6,1085.8l-10.4,0.9l-0.6-6.8l10.4-0.9L-979.6,1085.8z M-980.2,1078.1l-10.4,0.9l-0.6-6.8l10.4-0.9
			L-980.2,1078.1z"/>
	</g>
	<g>
		<path fill="#B29887" d="M-930,1069.3l0.2,30.7l12.4-0.1l-0.2-30.7L-930,1069.3z M-918.4,1093l-10.4,0.1l0-6.9l10.4-0.1
			L-918.4,1093z M-918.5,1085.3l-10.4,0.1l0-6.9l10.4-0.1L-918.5,1085.3z M-918.5,1077.5l-10.4,0.1l0-6.9l10.4-0.1L-918.5,1077.5z"
			/>
	</g>
	<g>
		<path fill="#B29887" d="M-975.8,1072.1l7.1,29.9l12.1-2.9l-7.1-29.9L-975.8,1072.1z M-959.2,1092.6l-10.1,2.4l-1.6-6.7l10.1-2.4
			L-959.2,1092.6z M-961,1085.1l-10.1,2.4l-1.6-6.7l10.1-2.4L-961,1085.1z M-962.8,1077.5l-10.1,2.4l-1.6-6.7l10.1-2.4
			L-962.8,1077.5z"/>
	</g>
	<g>
		<path fill="#B29887" d="M-1069.3,1063.2l-1.4,30.7l12.4,0.6l1.4-30.7L-1069.3,1063.2z M-1059,1087.5l-10.4-0.5l0.3-6.9l10.4,0.5
			L-1059,1087.5z M-1058.6,1079.7l-10.4-0.5l0.3-6.9l10.4,0.5L-1058.6,1079.7z M-1058.3,1071.9l-10.4-0.5l0.3-6.9l10.4,0.5
			L-1058.3,1071.9z"/>
	</g>
	<g>
		<path fill="#B29887" d="M-1009.2,1069l-1.4,30.7l12.4,0.6l1.4-30.7L-1009.2,1069z M-998.8,1093.3l-10.4-0.5l0.3-6.9l10.4,0.5
			L-998.8,1093.3z M-998.5,1085.5l-10.4-0.5l0.3-6.9l10.4,0.5L-998.5,1085.5z M-998.1,1077.8l-10.4-0.5l0.3-6.9l10.4,0.5
			L-998.1,1077.8z"/>
	</g>
	<g>
		<path fill="#B29887" d="M-1029.8,1069.3l1.8,30.7l12.4-0.7l-1.8-30.7L-1029.8,1069.3z M-1017,1092.5l-10.4,0.6l-0.4-6.9l10.4-0.6
			L-1017,1092.5z M-1017.5,1084.7l-10.4,0.6l-0.4-6.9l10.4-0.6L-1017.5,1084.7z M-1017.9,1076.9l-10.4,0.6l-0.4-6.9l10.4-0.6
			L-1017.9,1076.9z"/>
	</g>
	<g>
		<path fill="#75B1B1" d="M-1011.8,1104.3l2.7,30.6l12.4-1.1l-2.7-30.6L-1011.8,1104.3z M-998.4,1127l-10.4,0.9l-0.6-6.8l10.4-0.9
			L-998.4,1127z M-999,1119.3l-10.4,0.9l-0.6-6.8l10.4-0.9L-999,1119.3z M-999.7,1111.5l-10.4,0.9l-0.6-6.8l10.4-0.9L-999.7,1111.5z
			"/>
	</g>
	<g>
		<path fill="#75B1B1" d="M-922.4,1102.1l-3.6,30.5l12.3,1.4l3.6-30.5L-922.4,1102.1z M-913.9,1127.1l-10.3-1.2l0.8-6.8l10.3,1.2
			L-913.9,1127.1z M-913,1119.4l-10.3-1.2l0.8-6.8l10.3,1.2L-913,1119.4z M-912,1111.6l-10.3-1.2l0.8-6.8l10.3,1.2L-912,1111.6z"/>
	</g>
	<g>
		<path fill="#75B1B1" d="M-968.3,1103.4l-3.6,30.5l12.3,1.4l3.6-30.5L-968.3,1103.4z M-959.8,1128.4l-10.3-1.2l0.8-6.8l10.3,1.2
			L-959.8,1128.4z M-958.9,1120.7l-10.3-1.2l0.8-6.8l10.3,1.2L-958.9,1120.7z M-957.9,1113l-10.3-1.2l0.8-6.8l10.3,1.2L-957.9,1113z
			"/>
	</g>
	<g>
		<path fill="#75B1B1" d="M-1051.2,1099.8l-1.2,30.7l12.4,0.5l1.2-30.7L-1051.2,1099.8z M-1040.8,1124.1l-10.4-0.4l0.3-6.9l10.4,0.4
			L-1040.8,1124.1z M-1040.5,1116.3l-10.4-0.4l0.3-6.9l10.4,0.4L-1040.5,1116.3z M-1040.1,1108.5l-10.4-0.4l0.3-6.9l10.4,0.4
			L-1040.1,1108.5z"/>
	</g>
	<g>
		<path fill="#75B1B1" d="M-992.9,1104.3l2.7,30.6l12.4-1.1l-2.7-30.6L-992.9,1104.3z M-979.5,1127l-10.4,0.9l-0.6-6.8l10.4-0.9
			L-979.5,1127z M-980.1,1119.3l-10.4,0.9l-0.6-6.8l10.4-0.9L-980.1,1119.3z M-980.8,1111.5l-10.4,0.9l-0.6-6.8l10.4-0.9
			L-980.8,1111.5z"/>
	</g>
	<g>
		<path fill="#B29887" d="M-905.1,1100.1l0.2,30.7l12.4-0.1l-0.2-30.7L-905.1,1100.1z M-893.5,1123.9l-10.4,0.1l0-6.9l10.4-0.1
			L-893.5,1123.9z M-893.6,1116.1l-10.4,0.1l0-6.9l10.4-0.1L-893.6,1116.1z M-893.6,1108.3l-10.4,0.1l0-6.9l10.4-0.1L-893.6,1108.3z
			"/>
	</g>
	<g>
		<path fill="#B29887" d="M-952.5,1105.5l7.1,29.9l12.1-2.9l-7.1-29.9L-952.5,1105.5z M-935.9,1126.1l-10.1,2.4l-1.6-6.7l10.1-2.4
			L-935.9,1126.1z M-937.7,1118.5l-10.1,2.4l-1.6-6.7l10.1-2.4L-937.7,1118.5z M-939.5,1110.9l-10.1,2.4l-1.6-6.7l10.1-2.4
			L-939.5,1110.9z"/>
	</g>
	<g>
		<path fill="#B29887" d="M-1071.5,1096.1l-1.4,30.7l12.4,0.6l1.4-30.7L-1071.5,1096.1z M-1061.2,1120.4l-10.4-0.5l0.3-6.9l10.4,0.5
			L-1061.2,1120.4z M-1060.8,1112.6l-10.4-0.5l0.3-6.9l10.4,0.5L-1060.8,1112.6z M-1060.5,1104.9l-10.4-0.5l0.3-6.9l10.4,0.5
			L-1060.5,1104.9z"/>
	</g>
	<g>
		<path fill="#B29887" d="M-1030.5,1103.1l1.8,30.7l12.4-0.7l-1.8-30.7L-1030.5,1103.1z M-1017.8,1126.2l-10.4,0.6l-0.4-6.9
			l10.4-0.6L-1017.8,1126.2z M-1018.2,1118.5l-10.4,0.6l-0.4-6.9l10.4-0.6L-1018.2,1118.5z M-1018.7,1110.7l-10.4,0.6l-0.4-6.9
			l10.4-0.6L-1018.7,1110.7z"/>
	</g>
</g>
</svg>
