<?xml version="1.0" encoding="utf-8"?>
<!-- Generator: Adobe Illustrator 18.1.0, SVG Export Plug-In . SVG Version: 6.00 Build 0)  -->
<!DOCTYPE svg PUBLIC "-//W3C//DTD SVG 1.1//EN" "http://www.w3.org/Graphics/SVG/1.1/DTD/svg11.dtd">
<svg version="1.1" id="Arrow_1_" xmlns="http://www.w3.org/2000/svg" xmlns:xlink="http://www.w3.org/1999/xlink" x="0px" y="0px"
	 viewBox="-1636.4 1586.8 214.7 214.5" enable-background="new -1636.4 1586.8 214.7 214.5" xml:space="preserve">
<g>
	<path fill="#FFF8F4" d="M-1459.9,1801.3h-138.4c-21.1,0-38.1-17.1-38.1-38.1V1625c0-21.1,17.1-38.1,38.1-38.1h138.4
		c21.1,0,38.1,17.1,38.1,38.1v138.2C-1421.8,1784.2-1438.8,1801.3-1459.9,1801.3z"/>
	<g>
		<path fill="#B29887" d="M-1599.1,1696.5l2.8,47.6l19.2-1.1l-2.8-47.6L-1599.1,1696.5z M-1579.3,1732.4l-16.1,0.9l-0.6-10.6
			l16.1-0.9L-1579.3,1732.4z M-1580,1720.3l-16.1,0.9l-0.6-10.6l16.1-0.9L-1580,1720.3z M-1580.7,1708.3l-16.1,0.9l-0.6-10.6
			l16.1-0.9L-1580.7,1708.3z"/>
		<path fill="#724E3B" d="M-1615.6,1607.6v145.6v27.3h172.9v-15.9v-15.3v-141.7H-1615.6z M-1451.7,1767h-154.8v-145.8h154.8V1767z"
			/>
		<path fill="#724E3B" d="M-1614.4,1691.4v2.2c25.7,3.5,59.2,6.5,97.3,6.5c22.1,0,45.8-1.1,70.4-3.6v-2.1
			C-1513.7,1701.4-1573.9,1696.9-1614.4,1691.4z"/>
		<path fill="#75B1B1" d="M-1499.1,1696.9l-5.5,47.4l19.1,2.2l5.5-47.4L-1499.1,1696.9z M-1485.8,1735.7l-16-1.9l1.2-10.6l16,1.9
			L-1485.8,1735.7z M-1484.4,1723.7l-16-1.9l1.2-10.6l16,1.9L-1484.4,1723.7z M-1483,1711.7l-16-1.9l1.2-10.6l16,1.9L-1483,1711.7z"
			/>
		<path fill="#75B1B1" d="M-1550.5,1698.8l4.2,47.5l19.2-1.7l-4.2-47.5L-1550.5,1698.8z M-1529.7,1734.1l-16.1,1.4l-0.9-10.6
			l16.1-1.4L-1529.7,1734.1z M-1530.7,1722.1l-16.1,1.4l-0.9-10.6l16.1-1.4L-1530.7,1722.1z M-1531.8,1710.1l-16.1,1.4l-0.9-10.6
			l16.1-1.4L-1531.8,1710.1z"/>
		<path fill="#B29887" d="M-1479.4,1698l0.3,47.7l19.3-0.1l-0.3-47.7L-1479.4,1698z M-1461.4,1734.8l-16.1,0.1l-0.1-10.7l16.1-0.1
			L-1461.4,1734.8z M-1461.5,1722.7l-16.1,0.1l-0.1-10.7l16.1-0.1L-1461.5,1722.7z M-1461.6,1710.7l-16.1,0.1l-0.1-10.7l16.1-0.1
			L-1461.6,1710.7z"/>
		<path fill="#B29887" d="M-1531.9,1700.8l11,46.4l18.7-4.5l-11-46.4L-1531.9,1700.8z M-1506.1,1732.6l-15.7,3.7l-2.5-10.4l15.7-3.7
			L-1506.1,1732.6z M-1508.9,1720.9l-15.7,3.7l-2.5-10.4l15.7-3.7L-1508.9,1720.9z M-1511.7,1709.1l-15.7,3.7l-2.5-10.4l15.7-3.7
			L-1511.7,1709.1z"/>
		<path fill="#B29887" d="M-1569.8,1696l-2.1,47.7l19.2,0.9l2.1-47.7L-1569.8,1696z M-1553.7,1733.7l-16.1-0.7l0.5-10.7l16.1,0.7
			L-1553.7,1733.7z M-1553.2,1721.6l-16.1-0.7l0.5-10.7l16.1,0.7L-1553.2,1721.6z M-1552.6,1709.6l-16.1-0.7l0.5-10.7l16.1,0.7
			L-1552.6,1709.6z"/>
		<path fill="#724E3B" d="M-1614.8,1626.4v2.2c25.8,3.5,59.4,6.5,97.6,6.5c22.2,0,45.9-1.1,70.5-3.6v-2.1
			C-1513.9,1636.4-1574.2,1631.9-1614.8,1626.4z"/>
		<path fill="#75B1B1" d="M-1523.8,1632.4l-5.5,47.4l19.1,2.2l5.5-47.4L-1523.8,1632.4z M-1510.5,1671.2l-16-1.9l1.2-10.6l16,1.9
			L-1510.5,1671.2z M-1509.1,1659.2l-16-1.9l1.2-10.6l16,1.9L-1509.1,1659.2z M-1507.7,1647.2l-16-1.9l1.2-10.6l16,1.9
			L-1507.7,1647.2z"/>
		<path fill="#75B1B1" d="M-1600.3,1629.5l-5.5,47.4l19.1,2.2l5.5-47.4L-1600.3,1629.5z M-1587,1668.3l-16-1.9l1.2-10.6l16,1.9
			L-1587,1668.3z M-1585.6,1656.3l-16-1.9l1.2-10.6l16,1.9L-1585.6,1656.3z M-1584.2,1644.3l-16-1.9l1.2-10.6l16,1.9L-1584.2,1644.3
			z"/>
		<path fill="#75B1B1" d="M-1473.8,1631.9l-5.5,47.4l19.1,2.2l5.5-47.4L-1473.8,1631.9z M-1460.5,1670.7l-16-1.9l1.2-10.6l16,1.9
			L-1460.5,1670.7z M-1459.1,1658.7l-16-1.9l1.2-10.6l16,1.9L-1459.1,1658.7z M-1457.7,1646.7l-16-1.9l1.2-10.6l16,1.9
			L-1457.7,1646.7z"/>
		<path fill="#75B1B1" d="M-1552.7,1633.8l4.2,47.5l19.2-1.7l-4.2-47.5L-1552.7,1633.8z M-1531.8,1669.1l-16.1,1.4l-0.9-10.6
			l16.1-1.4L-1531.8,1669.1z M-1532.8,1657.1l-16.1,1.4l-0.9-10.6l16.1-1.4L-1532.8,1657.1z M-1533.9,1645.1l-16.1,1.4l-0.9-10.6
			l16.1-1.4L-1533.9,1645.1z"/>
		<path fill="#B29887" d="M-1505.1,1632.4l0.3,47.7l19.3-0.1l-0.3-47.7L-1505.1,1632.4z M-1487.2,1669.3l-16.1,0.1l-0.1-10.7
			l16.1-0.1L-1487.2,1669.3z M-1487.2,1657.2l-16.1,0.1l-0.1-10.7l16.1-0.1L-1487.2,1657.2z M-1487.3,1645.2l-16.1,0.1l-0.1-10.7
			l16.1-0.1L-1487.3,1645.2z"/>
		<path fill="#B29887" d="M-1575,1631l-2.1,47.7l19.2,0.9l2.1-47.7L-1575,1631z M-1558.9,1668.7l-16.1-0.7l0.5-10.7l16.1,0.7
			L-1558.9,1668.7z M-1558.4,1656.6l-16.1-0.7l0.5-10.7l16.1,0.7L-1558.4,1656.6z M-1557.8,1644.6l-16.1-0.7l0.5-10.7l16.1,0.7
			L-1557.8,1644.6z"/>
	</g>
</g>
</svg>
