<?xml version="1.0" encoding="utf-8"?>
<!-- Generator: Adobe Illustrator 18.1.0, SVG Export Plug-In . SVG Version: 6.00 Build 0)  -->
<!DOCTYPE svg PUBLIC "-//W3C//DTD SVG 1.1//EN" "http://www.w3.org/Graphics/SVG/1.1/DTD/svg11.dtd">
<svg version="1.1" id="Arrow_1_" xmlns="http://www.w3.org/2000/svg" xmlns:xlink="http://www.w3.org/1999/xlink" x="0px" y="0px"
	 viewBox="-1393.4 1586.8 214.7 214.5" enable-background="new -1393.4 1586.8 214.7 214.5" xml:space="preserve">
<path fill="#FFF8F4" d="M-1216.9,1801.3h-138.4c-21.1,0-38.1-17.1-38.1-38.1V1625c0-21.1,17.1-38.1,38.1-38.1h138.4
	c21.1,0,38.1,17.1,38.1,38.1v138.2C-1178.8,1784.2-1195.9,1801.3-1216.9,1801.3z"/>
<g>
	<g id="_x35_88-photobook.png_2_">
		<g>
			<path fill="#B29887" d="M-1338.4,1759.4h124.2v-143.8c0-7.2-5.9-13.1-13.1-13.1h-117.6c-7.2,0-13.1,5.9-13.1,13.1v156.8
				c0,7.2,5.9,13.1,13.1,13.1h117.6c7.2,0,13.1-5.9,13.1-13.1h-124.2c-3.6,0-6.5-2.9-6.5-6.5
				C-1344.9,1762.3-1342,1759.4-1338.4,1759.4z M-1325.3,1635.3h78.4v58.8h-78.4V1635.3z M-1266.5,1661.4c3.6,0,6.5-2.9,6.5-6.5
				c0-3.6-2.9-6.5-6.5-6.5c-3.6,0-6.5,2.9-6.5,6.5C-1273,1658.5-1270.1,1661.4-1266.5,1661.4z M-1279.6,1681l-19.6-19.6l-19.6,26.1
				h65.4l-13.1-13.1L-1279.6,1681z"/>
		</g>
	</g>
</g>
</svg>
