<?xml version="1.0" encoding="utf-8"?>
<!-- Generator: Adobe Illustrator 18.1.0, SVG Export Plug-In . SVG Version: 6.00 Build 0)  -->
<!DOCTYPE svg PUBLIC "-//W3C//DTD SVG 1.1//EN" "http://www.w3.org/Graphics/SVG/1.1/DTD/svg11.dtd">
<svg version="1.1" id="Arrow_1_" xmlns="http://www.w3.org/2000/svg" xmlns:xlink="http://www.w3.org/1999/xlink" x="0px" y="0px"
	 viewBox="-1393.4 1327 214.7 214.5" enable-background="new -1393.4 1327 214.7 214.5" xml:space="preserve">
<path fill="#FFF8F4" d="M-1216.9,1541.5h-138.4c-21.1,0-38.1-17.1-38.1-38.1v-138.2c0-21.1,17.1-38.1,38.1-38.1h138.4
	c21.1,0,38.1,17.1,38.1,38.1v138.2C-1178.8,1524.4-1195.9,1541.5-1216.9,1541.5z"/>
<g>
	<rect x="-1314.9" y="1356.1" fill="#FFF8F4" width="57.6" height="124.5"/>
	<g>
		<path fill="#75B1B1" d="M-1318.3,1348.9v157.6h63.3v-157.6H-1318.3z M-1260,1471h-53.2v-35.3h53.2V1471z M-1260,1431.6h-53.2
			v-35.3h53.2V1431.6z M-1260,1391.4h-53.2v-35.3h53.2V1391.4z"/>
		<path fill="#B29887" d="M-1319.6,1374.7v144.8h66.9v-144.8l-33.4,22.6L-1319.6,1374.7z"/>
	</g>
</g>
</svg>
