<?xml version="1.0" encoding="utf-8"?>
<!-- Generator: Adobe Illustrator 18.1.0, SVG Export Plug-In . SVG Version: 6.00 Build 0)  -->
<!DOCTYPE svg PUBLIC "-//W3C//DTD SVG 1.1//EN" "http://www.w3.org/Graphics/SVG/1.1/DTD/svg11.dtd">
<svg version="1.1" id="Arrow_1_" xmlns="http://www.w3.org/2000/svg" xmlns:xlink="http://www.w3.org/1999/xlink" x="0px" y="0px"
	 viewBox="-1144.3 1327 214.7 214.5" enable-background="new -1144.3 1327 214.7 214.5" xml:space="preserve">
<path fill="#FFF8F4" d="M-967.7,1541.5h-138.4c-21.1,0-38.1-17.1-38.1-38.1v-138.2c0-21.1,17.1-38.1,38.1-38.1h138.4
	c21.1,0,38.1,17.1,38.1,38.1v138.2C-929.6,1524.4-946.7,1541.5-967.7,1541.5z"/>
<g>
	<polygon fill="#4F443D" points="-1038.8,1444.4 -1026.8,1447.8 -998.4,1504.4 -1016.9,1503.6 	"/>
	<g>
		<polygon fill="#53473F" points="-1057,1412.5 -1054.9,1413.2 -1053.8,1414 -1055.9,1413.3 		"/>
	</g>
	<g>
		<polygon fill="#6EA7A7" points="-1042.4,1356.9 -1040.3,1357.6 -1046.4,1392.4 -1048.5,1391.7 		"/>
	</g>
	<g>
		<polygon fill="#6EA7A7" points="-1049.4,1396.5 -1047.3,1397.2 -1053.4,1432 -1055.5,1431.3 		"/>
	</g>
	<g>
		<polygon fill="#6C5C52" points="-1055.9,1413.3 -1053.8,1414 -1066.9,1488.1 -1069,1487.4 		"/>
	</g>
	<g>
		<polygon fill="#B29887" points="-1055.9,1413.3 -1069,1487.4 -1070.2,1487.2 -1057,1412.5 		"/>
	</g>
	<g>
		<polygon fill="#3A312C" points="-1069,1487.4 -1066.9,1488.1 -1068.1,1487.9 -1070.2,1487.2 		"/>
	</g>
	<g>
		<polygon fill="#6EA7A7" points="-1056.2,1435.4 -1054.2,1436.1 -1060.3,1470.9 -1062.4,1470.2 		"/>
	</g>
	<g>
		<polygon fill="#3B5959" points="-1005.1,1356.9 -1003.1,1357.5 -1040.3,1357.6 -1042.4,1356.9 		"/>
	</g>
	<g>
		<polygon fill="#3B5959" points="-1047.6,1491.9 -1045.5,1492.6 -1066.9,1488.1 -1069,1487.4 		"/>
	</g>
	<g>
		<polygon fill="#807C7A" points="-1011.3,1391.6 -1009.2,1392.3 -1046.4,1392.4 -1048.5,1391.7 		"/>
	</g>
	<g>
		<polygon fill="#FFF8F4" points="-1005.1,1356.9 -1011.3,1391.6 -1048.5,1391.7 -1042.4,1356.9 		"/>
	</g>
	<g>
		<polygon fill="#F0EAE6" points="-1005.1,1356.9 -1003.1,1357.5 -1009.2,1392.3 -1011.3,1391.6 		"/>
	</g>
	<g>
		<polygon fill="#3B5959" points="-1012.1,1396.5 -1010,1397.1 -1047.3,1397.2 -1049.4,1396.5 		"/>
	</g>
	<g>
		<polygon fill="#FFF8F4" points="-1012.1,1396.5 -1018.3,1431.2 -1055.5,1431.3 -1049.4,1396.5 		"/>
	</g>
	<g>
		<polygon fill="#F0EAE6" points="-1012.1,1396.5 -1010,1397.1 -1016.2,1431.9 -1018.3,1431.2 		"/>
	</g>
	<g>
		<polygon fill="#807C7A" points="-1018.3,1431.2 -1016.2,1431.9 -1053.4,1432 -1055.5,1431.3 		"/>
	</g>
	<g>
		<polygon fill="#6EA7A7" points="-1000.3,1349.8 -998.3,1350.5 -1009.5,1414 -1011.6,1413.3 		"/>
	</g>
	<g>
		<polygon fill="#3B5959" points="-1019,1435.3 -1016.9,1436 -1054.2,1436.1 -1056.2,1435.4 		"/>
	</g>
	<g>
		<polygon fill="#807C7A" points="-1025.1,1470.1 -1023.1,1470.8 -1060.3,1470.9 -1062.4,1470.2 		"/>
	</g>
	<g>
		<polygon fill="#FFF8F4" points="-1019,1435.3 -1025.1,1470.1 -1062.4,1470.2 -1056.2,1435.4 		"/>
	</g>
	<g>
		<polygon fill="#F0EAE6" points="-1019,1435.3 -1016.9,1436 -1023.1,1470.8 -1025.1,1470.1 		"/>
	</g>
	<g>
		<polygon fill="#3B5959" points="-1024.6,1487.4 -1022.6,1488.1 -1045.5,1492.6 -1047.6,1491.9 		"/>
	</g>
	<g>
		<polygon fill="#6EA7A7" points="-1011.6,1413.3 -1009.5,1414 -1022.6,1488.1 -1024.6,1487.4 		"/>
	</g>
	<g>
		<path fill="#75B1B1" d="M-1044.7,1349.9l44.3-0.1l-11.2,63.5l-13.1,74.1l-23,4.6l-21.4-4.5l13.1-74.1L-1044.7,1349.9z
			 M-1025.1,1470.1l6.1-34.8l-37.3,0.1l-6.1,34.8L-1025.1,1470.1 M-1018.3,1431.2l6.1-34.8l-37.3,0.1l-6.1,34.8L-1018.3,1431.2
			 M-1011.3,1391.6l6.1-34.8l-37.3,0.1l-6.1,34.8L-1011.3,1391.6"/>
	</g>
	<g>
		<polygon fill="#B29887" points="-1011.6,1413.3 -1010.2,1412.4 -1023.3,1487.1 -1024.6,1487.4 		"/>
	</g>
	<g>
		<polygon fill="#3A312C" points="-1023.3,1487.1 -1021.3,1487.8 -1022.6,1488.1 -1024.6,1487.4 		"/>
	</g>
	<g>
		<polygon fill="#6C5C52" points="-1010.2,1412.4 -1008.1,1413.1 -1021.3,1487.8 -1023.3,1487.1 		"/>
	</g>
	<g>
		<polygon fill="#594C44" points="-1028.8,1517.9 -1026.7,1518.6 -1073.5,1518.6 -1075.6,1517.9 		"/>
	</g>
	<g>
		<polygon fill="#736257" points="-1023.3,1487.1 -1021.3,1487.8 -1026.7,1518.6 -1028.8,1517.9 		"/>
	</g>
	<g>
		<polygon fill="#B29887" points="-1023.3,1487.1 -1028.8,1517.9 -1075.6,1517.9 -1070.2,1487.2 -1069,1487.4 -1047.6,1491.9 
			-1024.6,1487.4 		"/>
	</g>
</g>
</svg>
