<?xml version="1.0" encoding="utf-8"?>
<!-- Generator: Adobe Illustrator 18.1.0, SVG Export Plug-In . SVG Version: 6.00 Build 0)  -->
<!DOCTYPE svg PUBLIC "-//W3C//DTD SVG 1.1//EN" "http://www.w3.org/Graphics/SVG/1.1/DTD/svg11.dtd">
<svg version="1.1" id="Arrow_1_" xmlns="http://www.w3.org/2000/svg" xmlns:xlink="http://www.w3.org/1999/xlink" x="0px" y="0px"
	 viewBox="-1144.3 1586.8 214.7 214.5" enable-background="new -1144.3 1586.8 214.7 214.5" xml:space="preserve">
<path fill="#FFF8F4" d="M-967.7,1801.3h-138.4c-21.1,0-38.1-17.1-38.1-38.1V1625c0-21.1,17.1-38.1,38.1-38.1h138.4
	c21.1,0,38.1,17.1,38.1,38.1v138.2C-929.6,1784.2-946.7,1801.3-967.7,1801.3z"/>
<g>
	<g>
		
			<rect x="-1060.4" y="1606.9" transform="matrix(0.9956 -9.416962e-02 9.416962e-02 0.9956 -158.2127 -91.5775)" fill="#FFF8F4" width="21.9" height="47.3"/>
		<path fill="#75B1B1" d="M-1064.9,1605.3l6.1,64.6l25.9-2.5l-6.1-64.6L-1064.9,1605.3z M-1036.3,1653.1l-21.8,2.1l-1.4-14.5
			l21.8-2.1L-1036.3,1653.1z M-1037.8,1636.9l-21.8,2.1l-1.4-14.5l21.8-2.1L-1037.8,1636.9z M-1039.4,1620.4l-21.8,2.1l-1.4-14.5
			l21.8-2.1L-1039.4,1620.4z"/>
	</g>
	<g>
		
			<rect x="-1034.6" y="1607.2" transform="matrix(0.998 6.373148e-02 -6.373148e-02 0.998 101.8563 68.5556)" fill="#FFF8F4" width="21.9" height="47.3"/>
		<path fill="#B29887" d="M-1035,1603.5l-4.1,64.7l26,1.7l4.1-64.7L-1035,1603.5z M-1014.3,1655.2l-21.9-1.4l0.9-14.5l21.9,1.4
			L-1014.3,1655.2z M-1013.2,1639l-21.9-1.4l0.9-14.5l21.9,1.4L-1013.2,1639z M-1012.2,1622.4l-21.9-1.4l0.9-14.5l21.9,1.4
			L-1012.2,1622.4z"/>
	</g>
	<g>
		
			<rect x="-1090.4" y="1621.7" transform="matrix(0.8151 -0.5793 0.5793 0.8151 -1152.7866 -321.1554)" fill="#FFF8F4" width="21.9" height="47.3"/>
		<path fill="#75B1B1" d="M-1105.5,1631.2l37.6,52.9l21.2-15.1l-37.6-52.9L-1105.5,1631.2z M-1056.9,1658.2l-17.8,12.7l-8.4-11.8
			l17.8-12.7L-1056.9,1658.2z M-1066.3,1645l-17.8,12.7l-8.4-11.8l17.8-12.7L-1066.3,1645z M-1075.9,1631.5l-17.8,12.7l-8.4-11.8
			l17.8-12.7L-1075.9,1631.5z"/>
	</g>
	<g>
		
			<rect x="-1068" y="1609" transform="matrix(0.8961 -0.4438 0.4438 0.8961 -834.3714 -299.5199)" fill="#FFF8F4" width="21.9" height="47.3"/>
		<path fill="#B29887" d="M-1080.5,1614.6l28.8,58.1l23.3-11.6l-28.8-58.1L-1080.5,1614.6z M-1036.7,1649l-19.6,9.7l-6.4-13
			l19.6-9.7L-1036.7,1649z M-1043.9,1634.5l-19.6,9.7l-6.4-13l19.6-9.7L-1043.9,1634.5z M-1051.3,1619.7l-19.6,9.7l-6.4-13l19.6-9.7
			L-1051.3,1619.7z"/>
	</g>
	<g>
		
			<rect x="-1096" y="1627.3" transform="matrix(0.5542 -0.8324 0.8324 0.5542 -1858.0043 -167.1363)" fill="#FFF8F4" width="21.9" height="47.3"/>
		<path fill="#B29887" d="M-1114.4,1647.1l54,35.9l14.4-21.7l-54-35.9L-1114.4,1647.1z M-1059.3,1655l-12.1,18.2l-12.1-8l12.1-18.2
			L-1059.3,1655z M-1072.8,1646l-12.1,18.2l-12.1-8l12.1-18.2L-1072.8,1646z M-1086.6,1636.8l-12.1,18.2l-12.1-8l12.1-18.2
			L-1086.6,1636.8z"/>
	</g>
	<g>
		
			<rect x="-1111.4" y="1682.9" transform="matrix(-9.416963e-02 -0.9956 0.9956 -9.416963e-02 -2903.0222 771.7037)" fill="#FFF8F4" width="21.9" height="47.3"/>
		<path fill="#75B1B1" d="M-1125.7,1722l64.6-6.1l-2.5-25.9l-64.6,6.1L-1125.7,1722z M-1077.9,1693.4l2.1,21.8l-14.5,1.4l-2.1-21.8
			L-1077.9,1693.4z M-1094.1,1694.9l2.1,21.8l-14.5,1.4l-2.1-21.8L-1094.1,1694.9z M-1110.6,1696.5l2.1,21.8l-14.5,1.4l-2.1-21.8
			L-1110.6,1696.5z"/>
	</g>
	<g>
		
			<rect x="-1109.2" y="1690.5" transform="matrix(-0.4438 -0.8961 0.8961 -0.4438 -3121.8296 1490.6891)" fill="#FFF8F4" width="21.9" height="47.3"/>
		<path fill="#B29887" d="M-1116.4,1737.6l58.1-28.8l-11.6-23.3l-58.1,28.8L-1116.4,1737.6z M-1082,1693.9l9.7,19.6l-13,6.4
			l-9.7-19.6L-1082,1693.9z M-1096.5,1701.1l9.7,19.6l-13,6.4l-9.7-19.6L-1096.5,1701.1z M-1111.3,1708.4l9.7,19.6l-13,6.4
			l-9.7-19.6L-1111.3,1708.4z"/>
	</g>
	<g>
		
			<rect x="-1068.8" y="1731.6" transform="matrix(-0.9093 -0.4162 0.4162 -0.9093 -2750.3538 2911.0022)" fill="#FFF8F4" width="21.9" height="47.3"/>
		<path fill="#75B1B1" d="M-1057.1,1784.9l27-59l-23.7-10.8l-27,59L-1057.1,1784.9z M-1058,1729.2l19.9,9.1l-6,13.2l-19.9-9.1
			L-1058,1729.2z M-1064.7,1744l19.9,9.1l-6,13.2l-19.9-9.1L-1064.7,1744z M-1071.6,1759l19.9,9.1l-6,13.2l-19.9-9.1L-1071.6,1759z"
			/>
	</g>
	<g>
		
			<rect x="-1091" y="1718.5" transform="matrix(-0.8324 -0.5542 0.5542 -0.8324 -2944.4871 2593.8064)" fill="#FFF8F4" width="21.9" height="47.3"/>
		<path fill="#B29887" d="M-1083.9,1771.5l35.9-54l-21.7-14.4l-35.9,54L-1083.9,1771.5z M-1076,1716.4l18.2,12.1l-8,12.1l-18.2-12.1
			L-1076,1716.4z M-1085,1729.9l18.2,12.1l-8,12.1l-18.2-12.1L-1085,1729.9z M-1094.2,1743.7l18.2,12.1l-8,12.1l-18.2-12.1
			L-1094.2,1743.7z"/>
	</g>
	<g>
		
			<rect x="-1061.1" y="1733.6" transform="matrix(-0.998 -6.373151e-02 6.373151e-02 -0.998 -2210.2522 3444.0068)" fill="#FFF8F4" width="21.9" height="47.3"/>
		<path fill="#B29887" d="M-1038.9,1784.6l4.1-64.7l-26-1.7l-4.1,64.7L-1038.9,1784.6z M-1059.6,1733l21.9,1.4l-0.9,14.5l-21.9-1.4
			L-1059.6,1733z M-1060.7,1749.2l21.9,1.4l-0.9,14.5l-21.9-1.4L-1060.7,1749.2z M-1061.7,1765.7l21.9,1.4l-0.9,14.5l-21.9-1.4
			L-1061.7,1765.7z"/>
	</g>
	<g>
		
			<rect x="-1005.3" y="1719.2" transform="matrix(-0.8151 0.5793 -0.5793 -0.8151 -795.2156 3739.4321)" fill="#FFF8F4" width="21.9" height="47.3"/>
		<path fill="#75B1B1" d="M-968.3,1756.9l-37.6-52.9l-21.2,15.1l37.6,52.9L-968.3,1756.9z M-1017,1729.9l17.8-12.7l8.4,11.8
			l-17.8,12.7L-1017,1729.9z M-1007.6,1743.1l17.8-12.7l8.4,11.8l-17.8,12.7L-1007.6,1743.1z M-998,1756.6l17.8-12.7l8.4,11.8
			l-17.8,12.7L-998,1756.6z"/>
	</g>
	<g>
		
			<rect x="-1027.8" y="1731.8" transform="matrix(-0.8961 0.4438 -0.4438 -0.8961 -1148.9907 3779.7607)" fill="#FFF8F4" width="21.9" height="47.3"/>
		<path fill="#B29887" d="M-993.3,1773.5l-28.8-58.1l-23.3,11.6l28.8,58.1L-993.3,1773.5z M-1037.1,1739.1l19.6-9.7l6.4,13
			l-19.6,9.7L-1037.1,1739.1z M-1029.9,1753.6l19.6-9.7l6.4,13l-19.6,9.7L-1029.9,1753.6z M-1022.6,1768.5l19.6-9.7l6.4,13
			l-19.6,9.7L-1022.6,1768.5z"/>
	</g>
	<g>
		
			<rect x="-986.6" y="1691.3" transform="matrix(-0.4162 0.9093 -0.9093 -0.4162 177.5701 3315.99)" fill="#FFF8F4" width="21.9" height="47.3"/>
		<path fill="#75B1B1" d="M-946.1,1714.2l-59-27l-10.8,23.7l59,27L-946.1,1714.2z M-1001.8,1715.1l9.1-19.9l13.2,6l-9.1,19.9
			L-1001.8,1715.1z M-987,1721.9l9.1-19.9l13.2,6l-9.1,19.9L-987,1721.9z M-972,1728.8l9.1-19.9l13.2,6l-9.1,19.9L-972,1728.8z"/>
	</g>
	<g>
		
			<rect x="-999.8" y="1713.5" transform="matrix(-0.5542 0.8324 -0.8324 -0.5542 -90.8319 3522.9338)" fill="#FFF8F4" width="21.9" height="47.3"/>
		<path fill="#B29887" d="M-959.5,1741l-54-35.9l-14.4,21.7l54,35.9L-959.5,1741z M-1014.6,1733.1l12.1-18.2l12.1,8l-12.1,18.2
			L-1014.6,1733.1z M-1001.1,1742.1l12.1-18.2l12.1,8l-12.1,18.2L-1001.1,1742.1z M-987.3,1751.3l12.1-18.2l12.1,8l-12.1,18.2
			L-987.3,1751.3z"/>
	</g>
	<g>
		
			<rect x="-984.7" y="1683.7" transform="matrix(-6.373153e-02 0.998 -0.998 -6.373153e-02 668.0535 2787.8923)" fill="#FFF8F4" width="21.9" height="47.3"/>
		<path fill="#B29887" d="M-946.4,1696l-64.7-4.1l-1.7,26l64.7,4.1L-946.4,1696z M-998,1716.7l1.4-21.9l14.5,0.9l-1.4,21.9
			L-998,1716.7z M-981.8,1717.8l1.4-21.9l14.5,0.9l-1.4,21.9L-981.8,1717.8z M-965.3,1718.8l1.4-21.9l14.5,0.9l-1.4,21.9
			L-965.3,1718.8z"/>
	</g>
	<g>
		
			<rect x="-999.1" y="1627.8" transform="matrix(0.5793 0.8151 -0.8151 0.5793 930.4249 1500.1952)" fill="#FFF8F4" width="21.9" height="47.3"/>
		<path fill="#75B1B1" d="M-974,1625.5l-52.9,37.6l15.1,21.2l52.9-37.6L-974,1625.5z M-1001.1,1674.1l-12.7-17.8l11.8-8.4l12.7,17.8
			L-1001.1,1674.1z M-987.9,1664.7l-12.7-17.8l11.8-8.4l12.7,17.8L-987.9,1664.7z M-974.4,1655.1l-12.7-17.8l11.8-8.4l12.7,17.8
			L-974.4,1655.1z"/>
	</g>
	<g>
		
			<rect x="-986.5" y="1650.3" transform="matrix(0.4438 0.8961 -0.8961 0.4438 957.4513 1805.3082)" fill="#FFF8F4" width="21.9" height="47.3"/>
		<path fill="#B29887" d="M-957.5,1650.5l-58.1,28.8l11.6,23.3l58.1-28.8L-957.5,1650.5z M-991.9,1694.3l-9.7-19.6l13-6.4l9.7,19.6
			L-991.9,1694.3z M-977.4,1687l-9.7-19.6l13-6.4l9.7,19.6L-977.4,1687z M-962.5,1679.7l-9.7-19.6l13-6.4l9.7,19.6L-962.5,1679.7z"
			/>
	</g>
	<g>
		
			<rect x="-1026.9" y="1609.2" transform="matrix(0.9093 0.4162 -0.4162 0.9093 587.4326 571.0428)" fill="#FFF8F4" width="21.9" height="47.3"/>
		<path fill="#75B1B1" d="M-1016.8,1603.2l-27,59l23.7,10.8l27-59L-1016.8,1603.2z M-1015.9,1658.9l-19.9-9.1l6-13.2l19.9,9.1
			L-1015.9,1658.9z M-1009.1,1644.1l-19.9-9.1l6-13.2l19.9,9.1L-1009.1,1644.1z M-1002.2,1629.1l-19.9-9.1l6-13.2l19.9,9.1
			L-1002.2,1629.1z"/>
	</g>
	<g>
		
			<rect x="-1004.8" y="1622.3" transform="matrix(0.8324 0.5542 -0.5542 0.8324 745.5832 826.6342)" fill="#FFF8F4" width="21.9" height="47.3"/>
		<path fill="#B29887" d="M-990,1616.6l-35.9,54l21.7,14.4l35.9-54L-990,1616.6z M-997.8,1671.7l-18.2-12.1l8-12.1l18.2,12.1
			L-997.8,1671.7z M-988.8,1658.2l-18.2-12.1l8-12.1l18.2,12.1L-988.8,1658.2z M-979.7,1644.4l-18.2-12.1l8-12.1l18.2,12.1
			L-979.7,1644.4z"/>
	</g>
	<g>
		
			<rect x="-984.4" y="1657.9" transform="matrix(9.416967e-02 0.9956 -0.9956 9.416967e-02 792.3355 2492.3318)" fill="#FFF8F4" width="21.9" height="47.3"/>
		<path fill="#75B1B1" d="M-948.2,1666.1l-64.6,6.1l2.5,25.9l64.6-6.1L-948.2,1666.1z M-996,1694.7l-2.1-21.8l14.5-1.4l2.1,21.8
			L-996,1694.7z M-979.8,1693.2l-2.1-21.8l14.5-1.4l2.1,21.8L-979.8,1693.2z M-963.3,1691.6l-2.1-21.8l14.5-1.4l2.1,21.8
			L-963.3,1691.6z"/>
	</g>
	<g>
		
			<rect x="-1035.4" y="1733.9" transform="matrix(-0.9956 9.416974e-02 -9.416974e-02 -0.9956 -1878.8406 3603.7803)" fill="#FFF8F4" width="21.9" height="47.3"/>
		<path fill="#75B1B1" d="M-1009,1782.8l-6.1-64.6l-25.9,2.5l6.1,64.6L-1009,1782.8z M-1037.6,1735l21.8-2.1l1.4,14.5l-21.8,2.1
			L-1037.6,1735z M-1036,1751.2l21.8-2.1l1.4,14.5l-21.8,2.1L-1036,1751.2z M-1034.5,1767.7l21.8-2.1l1.4,14.5l-21.8,2.1
			L-1034.5,1767.7z"/>
	</g>
	<g>
		
			<rect x="-1096.6" y="1713" transform="matrix(-0.5793 -0.8151 0.8151 -0.5793 -3130.1626 1857.7664)" fill="#FFF8F4" width="21.9" height="47.3"/>
		<path fill="#75B1B1" d="M-1099.8,1762.6l52.9-37.6l-15.1-21.2l-52.9,37.6L-1099.8,1762.6z M-1072.7,1714l12.7,17.8l-11.8,8.4
			l-12.7-17.8L-1072.7,1714z M-1086,1723.4l12.7,17.8l-11.8,8.4l-12.7-17.8L-1086,1723.4z M-1099.5,1733l12.7,17.8l-11.8,8.4
			l-12.7-17.8L-1099.5,1733z"/>
	</g>
	<g>
		
			<rect x="-1111.1" y="1657.1" transform="matrix(6.373144e-02 -0.998 0.998 6.373144e-02 -2707.3977 475.7838)" fill="#FFF8F4" width="21.9" height="47.3"/>
		<path fill="#B29887" d="M-1127.5,1692.1l64.7,4.1l1.7-26l-64.7-4.1L-1127.5,1692.1z M-1075.8,1671.4l-1.4,21.9l-14.5-0.9l1.4-21.9
			L-1075.8,1671.4z M-1092,1670.3l-1.4,21.9l-14.5-0.9l1.4-21.9L-1092,1670.3z M-1108.5,1669.3l-1.4,21.9l-14.5-0.9l1.4-21.9
			L-1108.5,1669.3z"/>
	</g>
	<g>
		
			<rect x="-1109.1" y="1649.5" transform="matrix(0.4162 -0.9093 0.9093 0.4162 -2162.3892 -21.7965)" fill="#FFF8F4" width="21.9" height="47.3"/>
		<path fill="#75B1B1" d="M-1127.8,1673.9l59,27l10.8-23.7l-59-27L-1127.8,1673.9z M-1072.1,1673l-9.1,19.9l-13.2-6l9.1-19.9
			L-1072.1,1673z M-1086.9,1666.3l-9.1,19.9l-13.2-6l9.1-19.9L-1086.9,1666.3z M-1101.9,1659.4l-9.1,19.9l-13.2-6l9.1-19.9
			L-1101.9,1659.4z"/>
	</g>
</g>
</svg>
