<?xml version="1.0" encoding="utf-8"?>
<!-- Generator: Adobe Illustrator 18.1.0, SVG Export Plug-In . SVG Version: 6.00 Build 0)  -->
<!DOCTYPE svg PUBLIC "-//W3C//DTD SVG 1.1//EN" "http://www.w3.org/Graphics/SVG/1.1/DTD/svg11.dtd">
<svg version="1.1" id="Arrow_1_" xmlns="http://www.w3.org/2000/svg" xmlns:xlink="http://www.w3.org/1999/xlink" x="0px" y="0px"
	 viewBox="-801.7 201.2 214.7 214.5" enable-background="new -801.7 201.2 214.7 214.5" xml:space="preserve">
<g>
	<ellipse fill="#FFF8F4" cx="-694.4" cy="308.4" rx="105.3" ry="105.2"/>
	<polygon fill="#75B1B1" points="-668.6,301.8 -668.6,285.7 -683.6,285.7 -683.6,295.3 -692.2,295.3 -696.5,295.3 -705.1,295.3 
		-705.1,285.7 -720.1,285.7 -720.1,301.8 -745.9,327.5 -745.9,355.4 -701.9,355.4 -686.9,355.4 -642.8,355.4 -642.8,327.5 	"/>
	<path fill="#75B1B1" d="M-636.4,271.7c0,0-25.8-9.7-57.9-9.7c-32.2,0-58,9.7-58,9.7s-8.6,11.8-8.6,21.5c0,12.9,0,12.9,13.9,12.9
		c16.8,0,20.4-2.5,20.4-15c0-9.7,5.4-13.9,32.2-13.9c26.8,0,32.2,4.3,32.2,13.9c0,12.5,3.6,15,20.4,15c13.9,0,13.9,0,13.9-12.9
		C-627.8,283.5-636.4,271.7-636.4,271.7z"/>
	<circle fill="#17635C" stroke="#DBFEFF" stroke-miterlimit="10" cx="-694.4" cy="325.8" r="23.1"/>
	<g>
		<circle fill="#DBFEFF" stroke="#17635C" stroke-miterlimit="10" cx="-694.4" cy="310.4" r="3.6"/>
		<circle fill="#DBFEFF" stroke="#17635C" stroke-miterlimit="10" cx="-702" cy="312.4" r="3.6"/>
		<circle fill="#DBFEFF" stroke="#17635C" stroke-miterlimit="10" cx="-707.7" cy="318.1" r="3.6"/>
		<circle fill="#DBFEFF" stroke="#17635C" stroke-miterlimit="10" cx="-709.7" cy="325.8" r="3.6"/>
		<circle fill="#DBFEFF" stroke="#17635C" stroke-miterlimit="10" cx="-707.7" cy="333.5" r="3.6"/>
		<circle fill="#DBFEFF" stroke="#17635C" stroke-miterlimit="10" cx="-702" cy="339.1" r="3.6"/>
		<circle fill="#DBFEFF" stroke="#17635C" stroke-miterlimit="10" cx="-694.4" cy="341.1" r="3.6"/>
		<circle fill="#DBFEFF" stroke="#17635C" stroke-miterlimit="10" cx="-686.7" cy="339.1" r="3.6"/>
		<circle fill="#DBFEFF" stroke="#17635C" stroke-miterlimit="10" cx="-681" cy="333.5" r="3.6"/>
		<circle fill="#DBFEFF" stroke="#17635C" stroke-miterlimit="10" cx="-679" cy="325.8" r="3.6"/>
	</g>
</g>
</svg>
