<?xml version="1.0" encoding="utf-8"?>
<!-- Generator: Adobe Illustrator 18.1.0, SVG Export Plug-In . SVG Version: 6.00 Build 0)  -->
<!DOCTYPE svg PUBLIC "-//W3C//DTD SVG 1.1//EN" "http://www.w3.org/Graphics/SVG/1.1/DTD/svg11.dtd">
<svg version="1.1" id="Arrow_1_" xmlns="http://www.w3.org/2000/svg" xmlns:xlink="http://www.w3.org/1999/xlink" x="0px" y="0px"
	 viewBox="-515.2 970.3 214.7 214.5" enable-background="new -515.2 970.3 214.7 214.5" xml:space="preserve">
<g>
	<g>
		
			<rect x="-430.5" y="993.3" transform="matrix(0.9956 -9.416962e-02 9.416962e-02 0.9956 -97.5583 -35.0301)" fill="#FFF8F4" width="21.2" height="45.7"/>
		<path fill="#75B1B1" d="M-434.9,991.8l5.9,62.4l25.1-2.4l-5.9-62.4L-434.9,991.8z M-407.3,1037.9l-21.1,2l-1.3-14l21.1-2
			L-407.3,1037.9z M-408.7,1022.3l-21.1,2l-1.3-14l21.1-2L-408.7,1022.3z M-410.2,1006.4l-21.1,2l-1.3-14l21.1-2L-410.2,1006.4z"/>
	</g>
	<g>
		
			<rect x="-405.6" y="993.6" transform="matrix(0.998 6.373148e-02 -6.373148e-02 0.998 63.9775 27.2444)" fill="#FFF8F4" width="21.2" height="45.7"/>
		<path fill="#B29887" d="M-406,990l-4,62.5l25.1,1.6l4-62.5L-406,990z M-386,1039.9l-21.1-1.3l0.9-14l21.1,1.3L-386,1039.9z
			 M-385,1024.3l-21.1-1.3l0.9-14l21.1,1.3L-385,1024.3z M-383.9,1008.3l-21.1-1.3l0.9-14l21.1,1.3L-383.9,1008.3z"/>
	</g>
	<g>
		
			<rect x="-459.6" y="1007.6" transform="matrix(0.8151 -0.5793 0.5793 0.8151 -679.9786 -69.5896)" fill="#FFF8F4" width="21.2" height="45.7"/>
		<path fill="#75B1B1" d="M-474.2,1016.8l36.3,51.1l20.5-14.6l-36.3-51.1L-474.2,1016.8z M-427.1,1042.9l-17.2,12.3l-8.1-11.4
			l17.2-12.3L-427.1,1042.9z M-436.2,1030.1l-17.2,12.3l-8.1-11.4l17.2-12.3L-436.2,1030.1z M-445.5,1017.1l-17.2,12.3l-8.1-11.4
			l17.2-12.3L-445.5,1017.1z"/>
	</g>
	<g>
		
			<rect x="-437.9" y="995.4" transform="matrix(0.8961 -0.4438 0.4438 0.8961 -496.2678 -83.8738)" fill="#FFF8F4" width="21.2" height="45.7"/>
		<path fill="#B29887" d="M-450,1000.8l27.8,56.2l22.6-11.2l-27.8-56.2L-450,1000.8z M-407.7,1034l-19,9.4l-6.2-12.6l19-9.4
			L-407.7,1034z M-414.7,1020l-19,9.4l-6.2-12.6l19-9.4L-414.7,1020z M-421.7,1005.6l-19,9.4l-6.2-12.6l19-9.4L-421.7,1005.6z"/>
	</g>
	<g>
		
			<rect x="-464.9" y="1013" transform="matrix(0.5542 -0.8324 0.8324 0.5542 -1064.8396 83.6226)" fill="#FFF8F4" width="21.2" height="45.7"/>
		<path fill="#B29887" d="M-482.7,1032.1l52.2,34.7l13.9-21l-52.2-34.7L-482.7,1032.1z M-429.5,1039.8l-11.7,17.6l-11.7-7.8
			l11.7-17.6L-429.5,1039.8z M-442.5,1031.1l-11.7,17.6l-11.7-7.8l11.7-17.6L-442.5,1031.1z M-455.8,1022.2l-11.7,17.6l-11.7-7.8
			l11.7-17.6L-455.8,1022.2z"/>
	</g>
	<g>
		
			<rect x="-479.8" y="1066.7" transform="matrix(-9.416963e-02 -0.9956 0.9956 -9.416963e-02 -1598.1685 725.0422)" fill="#FFF8F4" width="21.2" height="45.7"/>
		<path fill="#75B1B1" d="M-493.6,1104.5l62.4-5.9l-2.4-25.1l-62.4,5.9L-493.6,1104.5z M-447.5,1076.9l2,21.1l-14,1.3l-2-21.1
			L-447.5,1076.9z M-463.1,1078.4l2,21.1l-14,1.3l-2-21.1L-463.1,1078.4z M-479,1079.9l2,21.1l-14,1.3l-2-21.1L-479,1079.9z"/>
	</g>
	<g>
		
			<rect x="-477.7" y="1074.1" transform="matrix(-0.4438 -0.8961 0.8961 -0.4438 -1657.5105 1165.1327)" fill="#FFF8F4" width="21.2" height="45.7"/>
		<path fill="#B29887" d="M-484.6,1119.6l56.2-27.8l-11.2-22.6l-56.2,27.8L-484.6,1119.6z M-451.4,1077.3l9.4,19l-12.6,6.2l-9.4-19
			L-451.4,1077.3z M-465.4,1084.3l9.4,19l-12.6,6.2l-9.4-19L-465.4,1084.3z M-479.8,1091.4l9.4,19l-12.6,6.2l-9.4-19L-479.8,1091.4z
			"/>
	</g>
	<g>
		
			<rect x="-438.7" y="1113.8" transform="matrix(-0.9093 -0.4162 0.4162 -0.9093 -1290.4952 1992.0515)" fill="#FFF8F4" width="21.2" height="45.7"/>
		<path fill="#75B1B1" d="M-427.4,1165.3l26.1-57l-22.9-10.5l-26.1,57L-427.4,1165.3z M-428.2,1111.5l19.2,8.8l-5.8,12.8l-19.2-8.8
			L-428.2,1111.5z M-434.7,1125.8l19.2,8.8l-5.8,12.8l-19.2-8.8L-434.7,1125.8z M-441.4,1140.3l19.2,8.8l-5.8,12.8l-19.2-8.8
			L-441.4,1140.3z"/>
	</g>
	<g>
		
			<rect x="-460.1" y="1101.1" transform="matrix(-0.8324 -0.5542 0.5542 -0.8324 -1446.5726 1810.5067)" fill="#FFF8F4" width="21.2" height="45.7"/>
		<path fill="#B29887" d="M-453.3,1152.4l34.7-52.2l-21-13.9l-34.7,52.2L-453.3,1152.4z M-445.6,1099.1l17.6,11.7l-7.8,11.7
			l-17.6-11.7L-445.6,1099.1z M-454.3,1112.2l17.6,11.7l-7.8,11.7l-17.6-11.7L-454.3,1112.2z M-463.2,1125.5l17.6,11.7l-7.8,11.7
			l-17.6-11.7L-463.2,1125.5z"/>
	</g>
	<g>
		
			<rect x="-431.3" y="1115.7" transform="matrix(-0.998 -6.373151e-02 6.373151e-02 -0.998 -913.0969 2248.0471)" fill="#FFF8F4" width="21.2" height="45.7"/>
		<path fill="#B29887" d="M-409.8,1165l4-62.5l-25.1-1.6l-4,62.5L-409.8,1165z M-429.8,1115.1l21.1,1.3l-0.9,14l-21.1-1.3
			L-429.8,1115.1z M-430.8,1130.8l21.1,1.3l-0.9,14l-21.1-1.3L-430.8,1130.8z M-431.8,1146.7l21.1,1.3l-0.9,14l-21.1-1.3
			L-431.8,1146.7z"/>
	</g>
	<g>
		
			<rect x="-377.3" y="1101.8" transform="matrix(-0.8151 0.5793 -0.5793 -0.8151 -14.1605 2253.7776)" fill="#FFF8F4" width="21.2" height="45.7"/>
		<path fill="#75B1B1" d="M-341.6,1138.3l-36.3-51.1l-20.5,14.6l36.3,51.1L-341.6,1138.3z M-388.6,1112.1l17.2-12.3l8.1,11.4
			l-17.2,12.3L-388.6,1112.1z M-379.5,1124.9l17.2-12.3l8.1,11.4l-17.2,12.3L-379.5,1124.9z M-370.3,1137.9l17.2-12.3l8.1,11.4
			l-17.2,12.3L-370.3,1137.9z"/>
	</g>
	<g>
		
			<rect x="-399" y="1114" transform="matrix(-0.8961 0.4438 -0.4438 -0.8961 -232.0377 2327.9348)" fill="#FFF8F4" width="21.2" height="45.7"/>
		<path fill="#B29887" d="M-365.8,1154.3l-27.8-56.2l-22.6,11.2l27.8,56.2L-365.8,1154.3z M-408.1,1121l19-9.4l6.2,12.6l-19,9.4
			L-408.1,1121z M-401.1,1135.1l19-9.4l6.2,12.6l-19,9.4L-401.1,1135.1z M-394,1149.4l19-9.4l6.2,12.6l-19,9.4L-394,1149.4z"/>
	</g>
	<g>
		
			<rect x="-359.3" y="1074.9" transform="matrix(-0.4162 0.9093 -0.9093 -0.4162 504.2929 1871.7393)" fill="#FFF8F4" width="21.2" height="45.7"/>
		<path fill="#75B1B1" d="M-320.1,1097l-57-26.1l-10.5,22.9l57,26.1L-320.1,1097z M-373.9,1097.9l8.8-19.2l12.8,5.8l-8.8,19.2
			L-373.9,1097.9z M-359.6,1104.4l8.8-19.2l12.8,5.8l-8.8,19.2L-359.6,1104.4z M-345.1,1111l8.8-19.2l12.8,5.8l-8.8,19.2
			L-345.1,1111z"/>
	</g>
	<g>
		
			<rect x="-372" y="1096.3" transform="matrix(-0.5542 0.8324 -0.8324 -0.5542 369.8948 2040.1951)" fill="#FFF8F4" width="21.2" height="45.7"/>
		<path fill="#B29887" d="M-333,1122.9l-52.2-34.7l-13.9,21l52.2,34.7L-333,1122.9z M-386.3,1115.3l11.7-17.6l11.7,7.8l-11.7,17.6
			L-386.3,1115.3z M-373.2,1124l11.7-17.6l11.7,7.8l-11.7,17.6L-373.2,1124z M-359.9,1132.8l11.7-17.6l11.7,7.8l-11.7,17.6
			L-359.9,1132.8z"/>
	</g>
	<g>
		
			<rect x="-357.4" y="1067.5" transform="matrix(-6.373153e-02 0.998 -0.998 -6.373153e-02 719.2022 1505.9397)" fill="#FFF8F4" width="21.2" height="45.7"/>
		<path fill="#B29887" d="M-320.4,1079.4l-62.5-4l-1.6,25.1l62.5,4L-320.4,1079.4z M-370.3,1099.4l1.3-21.1l14,0.9l-1.3,21.1
			L-370.3,1099.4z M-354.6,1100.4l1.3-21.1l14,0.9l-1.3,21.1L-354.6,1100.4z M-338.7,1101.5l1.3-21.1l14,0.9l-1.3,21.1
			L-338.7,1101.5z"/>
	</g>
	<g>
		
			<rect x="-371.4" y="1013.5" transform="matrix(0.5793 0.8151 -0.8151 0.5793 692.9944 730.0452)" fill="#FFF8F4" width="21.2" height="45.7"/>
		<path fill="#75B1B1" d="M-347.1,1011.3l-51.1,36.3l14.6,20.5l51.1-36.3L-347.1,1011.3z M-373.3,1058.3l-12.3-17.2l11.4-8.1
			l12.3,17.2L-373.3,1058.3z M-360.5,1049.2l-12.3-17.2l11.4-8.1l12.3,17.2L-360.5,1049.2z M-347.5,1039.9l-12.3-17.2l11.4-8.1
			l12.3,17.2L-347.5,1039.9z"/>
	</g>
	<g>
		
			<rect x="-359.2" y="1035.2" transform="matrix(0.4438 0.8961 -0.8961 0.4438 754.2982 900.9027)" fill="#FFF8F4" width="21.2" height="45.7"/>
		<path fill="#B29887" d="M-331.1,1035.4l-56.2,27.8l11.2,22.6l56.2-27.8L-331.1,1035.4z M-364.4,1077.7l-9.4-19l12.6-6.2l9.4,19
			L-364.4,1077.7z M-350.3,1070.7l-9.4-19l12.6-6.2l9.4,19L-350.3,1070.7z M-336,1063.7l-9.4-19l12.6-6.2l9.4,19L-336,1063.7z"/>
	</g>
	<g>
		
			<rect x="-398.2" y="995.5" transform="matrix(0.9093 0.4162 -0.4162 0.9093 388.6907 253.7525)" fill="#FFF8F4" width="21.2" height="45.7"/>
		<path fill="#75B1B1" d="M-388.4,989.7l-26.1,57l22.9,10.5l26.1-57L-388.4,989.7z M-387.5,1043.5l-19.2-8.8l5.8-12.8l19.2,8.8
			L-387.5,1043.5z M-381,1029.3l-19.2-8.8l5.8-12.8l19.2,8.8L-381,1029.3z M-374.4,1014.7l-19.2-8.8l5.8-12.8l19.2,8.8
			L-374.4,1014.7z"/>
	</g>
	<g>
		
			<rect x="-376.8" y="1008.2" transform="matrix(0.8324 0.5542 -0.5542 0.8324 509.9998 375.7722)" fill="#FFF8F4" width="21.2" height="45.7"/>
		<path fill="#B29887" d="M-362.5,1002.7l-34.7,52.2l21,13.9l34.7-52.2L-362.5,1002.7z M-370.1,1055.9l-17.6-11.7l7.8-11.7
			l17.6,11.7L-370.1,1055.9z M-361.4,1042.9l-17.6-11.7l7.8-11.7l17.6,11.7L-361.4,1042.9z M-352.6,1029.6l-17.6-11.7l7.8-11.7
			l17.6,11.7L-352.6,1029.6z"/>
	</g>
	<g>
		
			<rect x="-357.1" y="1042.6" transform="matrix(9.416967e-02 0.9956 -0.9956 9.416967e-02 746.8356 1310.1104)" fill="#FFF8F4" width="21.2" height="45.7"/>
		<path fill="#75B1B1" d="M-322.1,1050.5l-62.4,5.9l2.4,25.1l62.4-5.9L-322.1,1050.5z M-368.3,1078.1l-2-21.1l14-1.3l2,21.1
			L-368.3,1078.1z M-352.7,1076.7l-2-21.1l14-1.3l2,21.1L-352.7,1076.7z M-336.7,1075.2l-2-21.1l14-1.3l2,21.1L-336.7,1075.2z"/>
	</g>
	<g>
		
			<rect x="-406.4" y="1116" transform="matrix(-0.9956 9.416974e-02 -9.416974e-02 -0.9956 -682.6263 2309.9741)" fill="#FFF8F4" width="21.2" height="45.7"/>
		<path fill="#75B1B1" d="M-380.9,1163.3l-5.9-62.4l-25.1,2.4l5.9,62.4L-380.9,1163.3z M-408.5,1117.1l21.1-2l1.3,14l-21.1,2
			L-408.5,1117.1z M-407,1132.7l21.1-2l1.3,14l-21.1,2L-407,1132.7z M-405.5,1148.7l21.1-2l1.3,14l-21.1,2L-405.5,1148.7z"/>
	</g>
	<g>
		
			<rect x="-465.6" y="1095.8" transform="matrix(-0.5793 -0.8151 0.8151 -0.5793 -1630.3728 1395.8633)" fill="#FFF8F4" width="21.2" height="45.7"/>
		<path fill="#75B1B1" d="M-468.6,1143.8l51.1-36.3l-14.6-20.5l-51.1,36.3L-468.6,1143.8z M-442.5,1096.8l12.3,17.2l-11.4,8.1
			l-12.3-17.2L-442.5,1096.8z M-455.3,1105.9l12.3,17.2l-11.4,8.1l-12.3-17.2L-455.3,1105.9z M-468.3,1115.1l12.3,17.2l-11.4,8.1
			l-12.3-17.2L-468.3,1115.1z"/>
	</g>
	<g>
		
			<rect x="-479.5" y="1041.9" transform="matrix(6.373144e-02 -0.998 0.998 6.373144e-02 -1501.6005 528.8654)" fill="#FFF8F4" width="21.2" height="45.7"/>
		<path fill="#B29887" d="M-495.4,1075.6l62.5,4l1.6-25.1l-62.5-4L-495.4,1075.6z M-445.5,1055.6l-1.3,21.1l-14-0.9l1.3-21.1
			L-445.5,1055.6z M-461.1,1054.6l-1.3,21.1l-14-0.9l1.3-21.1L-461.1,1054.6z M-477.1,1053.6l-1.3,21.1l-14-0.9l1.3-21.1
			L-477.1,1053.6z"/>
	</g>
	<g>
		
			<rect x="-477.6" y="1034.4" transform="matrix(0.4162 -0.9093 0.9093 0.4162 -1234.0061 192.5532)" fill="#FFF8F4" width="21.2" height="45.7"/>
		<path fill="#75B1B1" d="M-495.7,1058l57,26.1l10.5-22.9l-57-26.1L-495.7,1058z M-441.9,1057.2l-8.8,19.2l-12.8-5.8l8.8-19.2
			L-441.9,1057.2z M-456.1,1050.7l-8.8,19.2l-12.8-5.8l8.8-19.2L-456.1,1050.7z M-470.7,1044l-8.8,19.2l-12.8-5.8l8.8-19.2
			L-470.7,1044z"/>
	</g>
</g>
</svg>
