<?xml version="1.0" encoding="utf-8"?>
<!-- Generator: Adobe Illustrator 18.1.0, SVG Export Plug-In . SVG Version: 6.00 Build 0)  -->
<!DOCTYPE svg PUBLIC "-//W3C//DTD SVG 1.1//EN" "http://www.w3.org/Graphics/SVG/1.1/DTD/svg11.dtd">
<svg version="1.1" id="Arrow_1_" xmlns="http://www.w3.org/2000/svg" xmlns:xlink="http://www.w3.org/1999/xlink" x="0px" y="0px"
	 viewBox="-1091.2 714.3 214.7 214.5" enable-background="new -1091.2 714.3 214.7 214.5" xml:space="preserve">
<g>
	<path fill="#B29887" d="M-1078.6,725l20.3,202.4l81.7-8.2l-20.3-202.4L-1078.6,725z M-987.7,874.3l-68.5,6.9l-4.5-45.2l68.5-6.9
		L-987.7,874.3z M-992.9,823.1l-68.5,6.9l-4.5-45.2l68.5-6.9L-992.9,823.1z M-998,771.9l-68.5,6.9l-4.5-45.2l68.5-6.9L-998,771.9z"
		/>
	<path fill="#75B1B1" d="M-970.6,715.8l-23.6,202l81.5,9.5l23.6-202L-970.6,715.8z M-913.9,881.1l-68.3-8l5.3-45.2l68.3,8
		L-913.9,881.1z M-907.9,830l-68.3-8l5.3-45.2l68.3,8L-907.9,830z M-902,778.9l-68.3-8l5.3-45.2l68.3,8L-902,778.9z"/>
</g>
</svg>
