<?xml version="1.0" encoding="utf-8"?>
<!-- Generator: Adobe Illustrator 18.1.0, SVG Export Plug-In . SVG Version: 6.00 Build 0)  -->
<!DOCTYPE svg PUBLIC "-//W3C//DTD SVG 1.1//EN" "http://www.w3.org/Graphics/SVG/1.1/DTD/svg11.dtd">
<svg version="1.1" id="Arrow_1_" xmlns="http://www.w3.org/2000/svg" xmlns:xlink="http://www.w3.org/1999/xlink" x="0px" y="0px"
	 viewBox="-515.2 201.2 214.7 214.5" enable-background="new -515.2 201.2 214.7 214.5" xml:space="preserve">
<g>
	<polygon fill="#4F443D" points="-410.2,321 -395.3,325.2 -360.1,395.5 -383,394.4 	"/>
	<g>
		<polygon fill="#53473F" points="-432.7,281.4 -430.2,282.3 -428.8,283.4 -431.4,282.5 		"/>
	</g>
	<g>
		<polygon fill="#6EA7A7" points="-414.6,212.5 -412.1,213.3 -419.7,256.5 -422.2,255.6 		"/>
	</g>
	<g>
		<polygon fill="#6EA7A7" points="-423.3,261.6 -420.7,262.5 -428.4,305.6 -430.9,304.8 		"/>
	</g>
	<g>
		<polygon fill="#6C5C52" points="-431.4,282.5 -428.8,283.4 -445,375.3 -447.6,374.4 		"/>
	</g>
	<g>
		<polygon fill="#B29887" points="-431.4,282.5 -447.6,374.4 -449.1,374.1 -432.7,281.4 		"/>
	</g>
	<g>
		<polygon fill="#3A312C" points="-447.6,374.4 -445,375.3 -446.5,375 -449.1,374.1 		"/>
	</g>
	<g>
		<polygon fill="#6EA7A7" points="-431.8,309.9 -429.3,310.7 -436.9,353.9 -439.4,353 		"/>
	</g>
	<g>
		<polygon fill="#3B5959" points="-368.4,212.4 -365.8,213.3 -412.1,213.3 -414.6,212.5 		"/>
	</g>
	<g>
		<polygon fill="#3B5959" points="-421.1,380 -418.6,380.9 -445,375.3 -447.6,374.4 		"/>
	</g>
	<g>
		<polygon fill="#807C7A" points="-376,255.5 -373.5,256.4 -419.7,256.5 -422.2,255.6 		"/>
	</g>
	<g>
		<polygon fill="#FFF8F4" points="-368.4,212.4 -376,255.5 -422.2,255.6 -414.6,212.5 		"/>
	</g>
	<g>
		<polygon fill="#F0EAE6" points="-368.4,212.4 -365.8,213.3 -373.5,256.4 -376,255.5 		"/>
	</g>
	<g>
		<polygon fill="#3B5959" points="-377.1,261.5 -374.5,262.4 -420.7,262.5 -423.3,261.6 		"/>
	</g>
	<g>
		<polygon fill="#FFF8F4" points="-377.1,261.5 -384.7,304.7 -430.9,304.8 -423.3,261.6 		"/>
	</g>
	<g>
		<polygon fill="#F0EAE6" points="-377.1,261.5 -374.5,262.4 -382.1,305.6 -384.7,304.7 		"/>
	</g>
	<g>
		<polygon fill="#807C7A" points="-384.7,304.7 -382.1,305.6 -428.4,305.6 -430.9,304.8 		"/>
	</g>
	<g>
		<polygon fill="#6EA7A7" points="-362.5,203.7 -359.9,204.5 -373.8,283.3 -376.4,282.4 		"/>
	</g>
	<g>
		<polygon fill="#3B5959" points="-385.6,309.8 -383,310.7 -429.3,310.7 -431.8,309.9 		"/>
	</g>
	<g>
		<polygon fill="#807C7A" points="-393.2,352.9 -390.7,353.8 -436.9,353.9 -439.4,353 		"/>
	</g>
	<g>
		<polygon fill="#FFF8F4" points="-385.6,309.8 -393.2,352.9 -439.4,353 -431.8,309.9 		"/>
	</g>
	<g>
		<polygon fill="#F0EAE6" points="-385.6,309.8 -383,310.7 -390.7,353.8 -393.2,352.9 		"/>
	</g>
	<g>
		<polygon fill="#3B5959" points="-392.6,374.4 -390.1,375.2 -418.6,380.9 -421.1,380 		"/>
	</g>
	<g>
		<polygon fill="#6EA7A7" points="-376.4,282.4 -373.8,283.3 -390.1,375.2 -392.6,374.4 		"/>
	</g>
	<g>
		<path fill="#75B1B1" d="M-417.5,203.7l55-0.1l-13.9,78.8l-16.2,92l-28.5,5.7l-26.5-5.6l16.2-91.9L-417.5,203.7z M-393.2,352.9
			l7.6-43.1l-46.2,0.1l-7.6,43.1L-393.2,352.9 M-384.7,304.7l7.6-43.1l-46.2,0.1l-7.6,43.1L-384.7,304.7 M-376,255.5l7.6-43.1
			l-46.2,0.1l-7.6,43.1L-376,255.5"/>
	</g>
	<g>
		<polygon fill="#B29887" points="-376.4,282.4 -374.6,281.3 -391,374 -392.6,374.4 		"/>
	</g>
	<g>
		<polygon fill="#3A312C" points="-391,374 -388.5,374.9 -390.1,375.2 -392.6,374.4 		"/>
	</g>
	<g>
		<polygon fill="#6C5C52" points="-374.6,281.3 -372.1,282.2 -388.5,374.9 -391,374 		"/>
	</g>
	<g>
		<polygon fill="#594C44" points="-397.8,412.2 -395.2,413.1 -453.3,413.2 -455.8,412.3 		"/>
	</g>
	<g>
		<polygon fill="#736257" points="-391,374 -388.5,374.9 -395.2,413.1 -397.8,412.2 		"/>
	</g>
	<g>
		<polygon fill="#B29887" points="-391,374 -397.8,412.2 -455.8,412.3 -449.1,374.1 -447.6,374.4 -421.1,380 -392.6,374.4 		"/>
	</g>
</g>
</svg>
